<?xml version="1.0" encoding="utf-8"?>
<!-- Generator: Adobe Illustrator 27.5.0, SVG Export Plug-In . SVG Version: 6.00 Build 0)  -->
<svg version="1.1" xmlns="http://www.w3.org/2000/svg" xmlns:xlink="http://www.w3.org/1999/xlink" x="0px" y="0px"
	 viewBox="0 0 3710 3710" style="enable-background:new 0 0 3710 3710;" xml:space="preserve">
<g id="Background">
	<g>
		<g>
			<rect style="fill:#FFFFFF;" width="3710" height="3710"/>
		</g>
	</g>
</g>
<g id="Illustration">
	<g>
		<linearGradient id="SVGID_1_" gradientUnits="userSpaceOnUse" x1="3477.1077" y1="3655.3611" x2="1529.1117" y2="1581.6886">
			<stop  offset="0" style="stop-color:#DAE3FE"/>
			<stop  offset="1" style="stop-color:#E9EFFD"/>
		</linearGradient>
		<path style="fill:url(#SVGID_1_);" d="M2892.223,2823.412c-71.912,74.125-136.256,117.698-185.521,150.592
			c-480.465,320.811-1029.689,228.346-1199.496,196.741c-273.962-50.99-505.223-86.961-703.918-266.474
			c-451.495-407.908-429.535-1258.835-84.538-1785.947c40.906-62.5,385.381-573.119,935.794-645.07
			c13.462-1.76,23.507-2.762,32.305-3.693c85.147-9.015,612.79-56.596,1043.031,303.859
			c61.587,51.597,160.698,144.666,252.605,286.61C3318.543,1579.044,3319.608,2382.881,2892.223,2823.412z"/>
		<path style="fill:#91B3FA;" d="M3235.698,3209.489h-1176.51V1353.43c0-26.874,21.785-48.659,48.659-48.659h1096.881
			c26.874,0,48.659,21.785,48.659,48.659V3191.8C3253.386,3201.569,3245.467,3209.489,3235.698,3209.489z"/>
		
			<linearGradient id="SVGID_00000048477371030254407800000008515682123393069239_" gradientUnits="userSpaceOnUse" x1="1432.0863" y1="3261.8784" x2="2539.1289" y2="1893.7405">
			<stop  offset="0" style="stop-color:#FF928E"/>
			<stop  offset="1" style="stop-color:#FE7062"/>
		</linearGradient>
		<path style="fill:url(#SVGID_00000048477371030254407800000008515682123393069239_);" d="M2513.665,3209.489H1472.871V1944.42
			c0-26.874,21.785-48.659,48.659-48.659h943.476c26.874,0,48.659,21.785,48.659,48.659V3209.489z"/>
		<path style="fill:#91B3FA;" d="M1785.428,3209.489H906.287c-9.769,0-17.689-7.919-17.689-17.688v-861.544
			c0-26.874,21.785-48.659,48.659-48.659h799.511c26.874,0,48.659,21.785,48.659,48.659V3209.489z"/>
		
			<linearGradient id="SVGID_00000007397626225362701640000004182930469016154021_" gradientUnits="userSpaceOnUse" x1="145.8742" y1="3744.5281" x2="1369.8802" y2="2575.1653">
			<stop  offset="0" style="stop-color:#FF928E"/>
			<stop  offset="1" style="stop-color:#FE7062"/>
		</linearGradient>
		<path style="fill:url(#SVGID_00000007397626225362701640000004182930469016154021_);" d="M1353.443,3217.552H474.302
			c-9.769,0-17.689-7.919-17.689-17.688v-358.078c0-26.874,21.785-48.659,48.659-48.659h799.511
			c26.874,0,48.659,21.785,48.659,48.659V3217.552z"/>
		<g>
			
				<linearGradient id="SVGID_00000033337489604784704240000012625285158363798169_" gradientUnits="userSpaceOnUse" x1="2786.6458" y1="1346.512" x2="2742.6809" y2="988.028">
				<stop  offset="0" style="stop-color:#FF928E"/>
				<stop  offset="1" style="stop-color:#FE7062"/>
			</linearGradient>
			<polygon style="fill:url(#SVGID_00000033337489604784704240000012625285158363798169_);" points="2765.326,1256.567 
				2712.887,1256.567 2630.455,1014.087 2859.591,1000.17 			"/>
			
				<linearGradient id="SVGID_00000147903509268655087970000000135829180186633361_" gradientUnits="userSpaceOnUse" x1="2743.2522" y1="1076.4304" x2="2736.4885" y2="542.0848">
				<stop  offset="0" style="stop-color:#FF928E"/>
				<stop  offset="1" style="stop-color:#FE7062"/>
			</linearGradient>
			<path style="fill:url(#SVGID_00000147903509268655087970000000135829180186633361_);" d="M2490.979,563.581
				c-0.259,20.466-0.259,421.177,203.158,486.249c203.417,65.073,295.297-273.971,288.006-515.434L2490.979,563.581z"/>
			
				<linearGradient id="SVGID_00000000184983564749569110000013299805799660806829_" gradientUnits="userSpaceOnUse" x1="2742.2095" y1="1262.2889" x2="2722.9219" y2="1578.1263">
				<stop  offset="0" style="stop-color:#FF928E"/>
				<stop  offset="1" style="stop-color:#FE7062"/>
			</linearGradient>
			
				<rect x="2576.503" y="1293.354" style="fill:url(#SVGID_00000000184983564749569110000013299805799660806829_);" width="325.208" height="39.484"/>
			
				<linearGradient id="SVGID_00000145775956288056259230000010193267987748678794_" gradientUnits="userSpaceOnUse" x1="2826.2788" y1="667.2969" x2="2751.877" y2="1201.64">
				<stop  offset="0" style="stop-color:#FF928E"/>
				<stop  offset="1" style="stop-color:#FE7062"/>
			</linearGradient>
			<polygon style="fill:url(#SVGID_00000145775956288056259230000010193267987748678794_);" points="2901.711,1293.354 
				2576.503,1293.354 2658.808,1249.198 2819.406,1249.198 			"/>
			
				<linearGradient id="SVGID_00000181781354943643453090000009955662063388115086_" gradientUnits="userSpaceOnUse" x1="3083.7837" y1="85.2144" x2="1960.3901" y2="1581.0046">
				<stop  offset="0" style="stop-color:#FF928E"/>
				<stop  offset="1" style="stop-color:#FE7062"/>
			</linearGradient>
			<path style="fill:url(#SVGID_00000181781354943643453090000009955662063388115086_);" d="M2467.405,506.725
				c-17.855,1.086-32.463,14.306-32.463,29.376v30.821c0,15.07,14.616,26.614,32.481,25.653l557.491-29.996
				c17.866-0.961,32.483-14.078,32.483-29.147v-35.204c0-15.071-14.609-26.512-32.464-25.425L2467.405,506.725z"/>
			
				<linearGradient id="SVGID_00000182516850317846767950000006036179376076350122_" gradientUnits="userSpaceOnUse" x1="3814.0989" y1="614.4149" x2="3103.8958" y2="884.9691">
				<stop  offset="0" style="stop-color:#FF928E"/>
				<stop  offset="1" style="stop-color:#FE7062"/>
			</linearGradient>
			<path style="fill:url(#SVGID_00000182516850317846767950000006036179376076350122_);" d="M2838.187,1081.679
				c-12.993,0-24.201-8.21-25.711-19.339c-1.624-11.965,8.579-22.775,22.788-24.148c2.706-0.271,189.785-20.025,207.522-122.42
				c2.992-17.264,2.659-39.818-15.906-49.228c-15.323-7.772-40.409-5.301-58.346,5.743c-10.198,6.279-21.358,17.278-16.612,34.019
				c3.323,11.718-5.268,23.485-19.189,26.282c-13.915,2.795-27.896-4.436-31.218-16.154c-8.605-30.35,5.011-60.018,36.424-79.36
				c34.899-21.493,82.467-24.74,115.679-7.904c19.412,9.841,50.481,34.997,40.45,92.898
				c-9.917,57.251-57.724,103.113-138.249,132.627c-57.823,21.194-112.362,26.621-114.655,26.841
				C2840.163,1081.632,2839.17,1081.679,2838.187,1081.679z"/>
			
				<linearGradient id="SVGID_00000142855308928076028260000009344173120611276457_" gradientUnits="userSpaceOnUse" x1="2952.0356" y1="563.7468" x2="2410.9285" y2="1077.7987">
				<stop  offset="0" style="stop-color:#FF928E"/>
				<stop  offset="1" style="stop-color:#FE7062"/>
			</linearGradient>
			<path style="fill:url(#SVGID_00000142855308928076028260000009344173120611276457_);" d="M2644.156,1081.679
				c12.992,0,24.201-8.21,25.712-19.339c1.623-11.965-8.579-22.775-22.788-24.148c-2.706-0.271-189.786-20.025-207.522-122.42
				c-2.991-17.264-2.659-39.818,15.905-49.228c15.323-7.772,40.41-5.301,58.347,5.743c10.198,6.279,21.357,17.278,16.611,34.019
				c-3.323,11.718,5.267,23.485,19.188,26.282c13.916,2.795,27.896-4.436,31.219-16.154c8.605-30.35-5.011-60.018-36.423-79.36
				c-34.899-21.493-82.468-24.74-115.679-7.904c-19.412,9.841-50.481,34.997-40.45,92.898
				c9.917,57.251,57.724,103.113,138.249,132.627c57.823,21.194,112.362,26.621,114.656,26.841
				C2642.18,1081.632,2643.172,1081.679,2644.156,1081.679z"/>
			<path style="opacity:0.61;fill:#FFFFFF;" d="M2871.798,532.106c-2.234,0-4.104-1.75-4.226-4.009
				c-0.126-2.336,1.667-4.332,4.003-4.458l49.787-2.677c2.344-0.091,4.332,1.665,4.458,4.003c0.126,2.336-1.667,4.332-4.003,4.458
				l-49.787,2.677C2871.953,532.104,2871.875,532.106,2871.798,532.106z"/>
			<path style="opacity:0.61;fill:#FFFFFF;" d="M2490.957,552.597c-2.234,0-4.104-1.75-4.227-4.009
				c-0.126-2.336,1.667-4.332,4.003-4.458l297.433-16.002c2.325-0.136,4.332,1.667,4.458,4.003c0.126,2.336-1.667,4.332-4.003,4.458
				l-297.433,16.002C2491.112,552.595,2491.033,552.597,2490.957,552.597z"/>
			<path style="opacity:0.61;fill:#FFFFFF;" d="M2721.265,1004.406c-0.163,0-0.327-0.008-0.49-0.027
				c-53.86-6.196-96.917-50.054-127.973-130.357c-25.646-66.312-37.75-143.915-43.388-197.338c-0.244-2.327,1.442-4.413,3.769-4.659
				c2.332-0.222,4.413,1.442,4.659,3.769c9.678,91.71,45.021,306.492,163.901,320.165c2.325,0.269,3.993,2.369,3.726,4.694
				C2725.218,1002.814,2723.388,1004.406,2721.265,1004.406z"/>
			<path style="opacity:0.61;fill:#FFFFFF;" d="M2550.03,638.575c-2.215,0-4.077-1.721-4.224-3.962
				c-0.794-12.228-1.007-19.262-1.016-19.556c-0.07-2.34,1.771-4.291,4.108-4.361c2.507-0.155,4.293,1.771,4.361,4.108
				c0.002,0.07,0.219,7.197,1.003,19.258c0.151,2.336-1.62,4.351-3.953,4.504C2550.217,638.572,2550.123,638.575,2550.03,638.575z"
				/>
		</g>
		<g>
			<g>
				<g>
					<path style="fill:#91B3FA;" d="M505.242,1014.885c-1.477-0.558-2.577-1.919-2.699-3.565c-0.406-5.432-0.703-10.964-0.884-16.44
						c-0.074-2.25,1.719-4.104,4.007-4.143c5.546-0.124,4.045,5.409,5.142,20.109c0.169,2.245-1.546,4.174-3.829,4.303
						C506.37,1015.183,505.781,1015.088,505.242,1014.885z"/>
					<path style="fill:#91B3FA;" d="M503.308,943.662c1.015-10.416,2.465-20.919,4.31-31.214c0.397-2.21,2.544-3.659,4.799-3.235
						c6.138,1.19,2.135,4.649-0.859,35.348c-0.218,2.237-2.241,3.848-4.52,3.6C504.729,947.906,503.092,945.87,503.308,943.662z
						 M519.836,862.797c3.159-10.023,6.776-20.108,10.633-29.621c2.065-5.116,9.695-1.79,7.706,3.11
						c-3.836,9.487-7.326,19.218-10.417,29.028c-0.674,2.141-2.994,3.31-5.181,2.616
						C520.365,867.225,519.169,864.915,519.836,862.797z M552.659,787.128c5.139-9.098,10.715-18.105,16.575-26.776
						c3.025-4.468,9.931,0.132,6.925,4.579c-5.742,8.495-11.206,17.322-16.24,26.233
						C557.271,795.853,550.017,791.802,552.659,787.128z M601.086,725.613c-1.736-1.491-1.935-4.066-0.442-5.749
						c6.945-7.844,14.304-15.514,21.871-22.798c3.891-3.744,9.733,2.12,5.846,5.863c-7.413,7.137-14.625,14.653-21.432,22.337
						C605.438,726.951,602.818,727.106,601.086,725.613z M661.003,669.576c-1.397-1.804-1.058-4.355,0.757-5.701
						c8.454-6.269,17.266-12.282,26.19-17.872c4.595-2.864,9.121,4.012,4.529,6.892c-8.746,5.478-17.381,11.369-25.664,17.512
						C665.003,671.75,662.399,671.379,661.003,669.576z M733.705,628.919c-0.97-0.366-1.806-1.083-2.292-2.076
						c-1-2.038-0.143-4.464,1.918-5.416c9.6-4.439,19.491-8.554,29.399-12.234c2.132-0.791,4.534,0.273,5.374,2.382
						c0.835,2.107-0.212,4.455-2.342,5.247c-9.71,3.604-19.403,7.639-28.812,11.989
						C735.893,629.299,734.726,629.305,733.705,628.919z M811.94,602.011c-1.24-0.468-2.239-1.505-2.587-2.862
						c-0.561-2.19,0.784-4.385,3.002-4.904c10.328-2.415,20.891-4.457,31.395-6.067c2.254-0.351,4.399,1.172,4.784,3.399
						c0.386,2.221-1.129,4.305-3.386,4.651c-10.291,1.579-20.64,3.58-30.76,5.947C813.546,602.372,812.698,602.298,811.94,602.011z
						 M891.645,587.717c-0.096-2.25,1.68-4.121,3.968-4.181c10.637-0.28,21.438-0.145,32.103,0.397
						c5.493,0.295,5.159,8.413-0.305,8.136c-10.447-0.533-21.029-0.662-31.451-0.388
						C893.678,591.743,891.741,589.971,891.645,587.717z M1157.15,676.215c-24.823-18.957-30.405-18.65-26.999-23.789
						c1.239-1.875,3.801-2.374,5.727-1.134c8.961,5.806,17.807,12.036,26.294,18.517
						C1166.529,673.134,1161.522,679.547,1157.15,676.215z M974.836,593.134c0.374-2.214,2.506-3.684,4.765-3.282
						c10.503,1.866,21.081,4.161,31.439,6.824c5.324,1.371,3.334,9.248-1.983,7.88c-10.151-2.609-20.518-4.86-30.809-6.689
						C975.964,597.459,974.466,595.325,974.836,593.134z M1086.749,632.957c-28.093-13.58-33.562-12.183-31.299-17.934
						c1.435-3.647,5.853-2.283,5.355-2.262c9.979,3.915,19.908,8.255,29.509,12.893c2.067,0.999,2.942,3.443,1.958,5.459
						C1091.331,633.038,1088.948,633.985,1086.749,632.957z"/>
					<path style="fill:#91B3FA;" d="M1207.349,721.617c-9.518-10.166-15.424-13.611-11.465-17.49c1.605-1.575,4.23-1.563,5.86,0.053
						c10.266,10.117,15.415,14.151,11.463,17.72C1212.022,722.971,1208.91,723.278,1207.349,721.617z"/>
				</g>
				<g>
					<path style="fill:#91B3FA;" d="M1318.198,1018.53c-1.657-0.626-2.8-2.253-2.701-4.077c0.289-5.352,0.467-10.77,0.532-16.105
						c0.028-2.25,1.905-4.023,4.195-3.962c2.283,0.067,4.121,1.932,4.094,4.184c-0.068,5.444-0.251,10.972-0.544,16.435
						c-0.121,2.244-2.072,3.941-4.357,3.788C1318.99,1018.766,1318.579,1018.674,1318.198,1018.53z"/>
					<path style="fill:#91B3FA;" d="M759.284,1360.639c-10.662-4.362-21.266-9.217-31.517-14.433
						c-2.046-1.04-2.871-3.501-1.842-5.496c2.899-5.619,5.248-0.35,36.445,12.415c2.125,0.868,3.156,3.255,2.303,5.331
						C763.183,1362.081,758.786,1360.655,759.284,1360.639z M809.676,1373.49c1.571-6.113,5.196-1.443,38.181,4.389
						c2.265,0.389,3.788,2.52,3.417,4.731c-0.372,2.215-2.505,3.686-4.762,3.287c-11.288-1.995-22.67-4.492-33.828-7.419
						C810.448,1377.889,809.121,1375.65,809.676,1373.49z M679.436,1317.379c-9.444-6.537-18.737-13.554-27.617-20.855
						c-1.767-1.454-2.024-4.025-0.571-5.743c4.096-4.841,5.202,0.797,32.89,19.958c1.884,1.305,2.36,3.849,1.062,5.682
						C683.902,1318.252,681.323,1318.679,679.436,1317.379z M901.063,1391.686c-1.619-0.612-2.754-2.178-2.707-3.969
						c0.059-2.248,1.962-3.995,4.25-3.902c11.259,0.455,22.65,0.443,33.854-0.036c2.291-0.097,4.247,1.644,4.38,3.891
						c0.135,2.249-1.608,4.15-3.893,4.248c-11.439,0.49-23.065,0.502-34.558,0.037
						C901.926,1391.936,901.477,1391.843,901.063,1391.686z M990.351,1385.545c-1.308-0.494-2.342-1.622-2.634-3.071
						c-0.445-2.212,1.015-4.334,3.261-4.739c11.019-1.982,22.09-4.455,32.906-7.351c2.201-0.589,4.495,0.695,5.128,2.865
						c0.631,2.172-0.639,4.41-2.838,4.998c-11.038,2.956-22.338,5.479-33.586,7.504
						C991.812,1385.891,991.043,1385.806,990.351,1385.545z M1075.818,1360.272c-1.016-0.383-1.883-1.152-2.356-2.21
						c-0.925-2.071,0.023-4.462,2.117-5.34c10.284-4.312,20.505-9.11,30.381-14.26c2.011-1.045,4.525-0.282,5.623,1.708
						c1.096,1.991,0.356,4.455-1.653,5.503c-10.078,5.255-20.508,10.15-31.003,14.552
						C1077.902,1360.652,1076.792,1360.64,1075.818,1360.272z M1153.371,1317.201c-0.732-0.277-1.399-0.759-1.897-1.431
						c-1.358-1.832-0.965-4.376,0.878-5.683c9.052-6.422,17.933-13.31,26.398-20.468c1.722-1.457,4.338-1.251,5.847,0.468
						c1.508,1.714,1.336,4.285-0.387,5.741c-8.638,7.306-17.701,14.335-26.94,20.89
						C1156.102,1317.546,1154.635,1317.679,1153.371,1317.201z M1217.987,1257.624c-4.862-4.22,0.861-5.064,20.684-31.487
						c3.228-4.305,9.929,0.591,6.696,4.899c-6.763,9.015-14.008,17.854-21.535,26.267
						C1222.339,1258.972,1219.725,1259.133,1217.987,1257.624z M1269.656,1186.313c-5.676-3.074-0.328-5.103,13.039-35.284
						c2.168-4.893,9.79-1.576,7.608,3.344c-4.561,10.3-9.62,20.514-15.037,30.36
						C1274.168,1186.728,1271.62,1187.396,1269.656,1186.313z M1303.605,1105.28c-2.005-0.757-3.139-2.907-2.551-4.956
						c3.045-10.65,5.661-21.516,7.772-32.292c0.433-2.202,2.604-3.617,4.853-3.16c2.253,0.472,3.719,2.615,3.288,4.818
						c-2.156,10.997-4.824,22.082-7.933,32.948c-0.615,2.157-2.902,3.388-5.107,2.748
						C1303.817,1105.356,1303.71,1105.319,1303.605,1105.28z"/>
					<path style="fill:#91B3FA;" d="M610.798,1257.835c-9.801-10.583-14.744-14.831-10.624-18.211
						c4.285-3.519,6.683,1.937,16.716,12.777c1.553,1.677,1.446,4.252-0.236,5.752
						C614.971,1259.654,612.349,1259.51,610.798,1257.835z"/>
				</g>
				<g>
					<path style="fill:#91B3FA;" d="M656.112,1154.857l58.9-7.294c17.945,21.108,39.4,39.608,63.872,54.496
						c2.298,56.794-1.567,60.939,4.504,62.962l67.88,22.614c1.984,0.66,4.157,0.017,5.41-1.601l35.749-46.149
						c28.49,2.753,56.714,0.806,83.682-5.341l42.849,41.19c1.502,1.443,3.756,1.805,5.612,0.901l63.542-30.956
						c1.857-0.905,2.908-2.876,2.616-4.91l-8.311-58.014c21.205-17.322,39.701-38.135,54.479-61.968l59.434-0.221
						c2.085-0.007,3.915-1.315,4.557-3.254l21.98-66.391c0.643-1.94-0.044-4.086-1.71-5.343l-47.495-35.843
						c2.372-27.966-0.036-55.742-6.699-82.348c39.432-41.38,44.974-41.416,42.092-47.005
						c-32.917-61.171-31.041-66.378-37.491-65.581l-58.9,7.294c-17.944-21.11-39.4-39.608-63.872-54.496
						c-2.296-56.759,1.569-60.937-4.503-62.964c-67.828-21.309-69.448-25.975-73.291-21.012l-35.749,46.15
						c-28.489-2.756-56.714-0.808-83.683,5.34c-42.178-38.911-42.732-44.883-48.461-42.091
						c-62.337,31.738-67.054,29.598-66.157,35.865l8.311,58.014c-21.206,17.322-39.702,38.135-54.479,61.968
						c-56.733,1.375-61.988-2.587-63.992,3.476c-20.564,66.067-25.407,67.854-20.271,71.733l47.495,35.843
						c-2.371,27.964,0.038,55.741,6.699,82.347c-39.298,41.24-44.985,41.386-42.091,47.006
						C651.538,1150.447,649.662,1155.654,656.112,1154.857z"/>
					
						<linearGradient id="SVGID_00000121968093802895325590000015357585432076851121_" gradientUnits="userSpaceOnUse" x1="844.266" y1="984.8301" x2="983.4131" y2="984.8301">
						<stop  offset="0" style="stop-color:#DAE3FE"/>
						<stop  offset="1" style="stop-color:#E9EFFD"/>
					</linearGradient>
					<path style="fill:url(#SVGID_00000121968093802895325590000015357585432076851121_);" d="M844.419,979.295
						c2.526-37.585,35.722-65.68,74.001-62.628c38.274,3.063,67.365,36.112,64.841,73.697c-2.528,37.584-35.723,65.68-74.001,62.63
						l0,0C870.971,1049.943,841.893,1016.871,844.419,979.295z M909.668,1046.903l0.038,0.014L909.668,1046.903z M917.601,928.849
						c-31.07-2.479-58.672,20.103-60.775,51.434c-2.076,30.868,21.812,58.031,53.252,60.528
						c31.437,2.505,58.702-20.569,60.776-51.436C972.931,958.46,948.982,931.344,917.601,928.849z"/>
					
						<linearGradient id="SVGID_00000033359948455985654060000011595416541238758076_" gradientUnits="userSpaceOnUse" x1="736.7214" y1="984.2871" x2="1093.5995" y2="984.2871">
						<stop  offset="0" style="stop-color:#DAE3FE"/>
						<stop  offset="1" style="stop-color:#E9EFFD"/>
					</linearGradient>
					<path style="fill:url(#SVGID_00000033359948455985654060000011595416541238758076_);" d="M853.28,1147.594L853.28,1147.594
						c-9.646-3.643-18.969-8.082-27.797-13.244c-2.654-1.552-3.745-4.713-2.719-7.434c0.123-0.325,0.275-0.643,0.459-0.95
						c1.722-2.894,5.536-3.826,8.496-2.095c10.154,5.936,21.02,10.846,32.286,14.607l0,0
						c84.888,28.278,176.147-14.448,206.776-95.533c0.782-2.071,1.524-4.167,2.227-6.287
						c28.359-85.664-19.847-178.03-106.757-207.009c-86.79-28.914-180.675,16.392-209.002,101.819
						c-16.833,50.857-2.121,84.984-4.099,90.22c-2.137,5.658-10.509,4.996-11.891-0.913c-7.556-32.278-5.875-67.092,6.556-100.006
						c53.646-142.017,255.745-150.666,326.172-14.097c21.675,42.027,25.527,89.589,10.846,133.926
						c-0.758,2.294-1.563,4.565-2.411,6.815c-15.552,41.186-45.915,74.39-86.151,93.993c-42.433,20.67-90.767,23.738-136.097,8.637
						C857.86,1149.273,855.56,1148.455,853.28,1147.594z"/>
				</g>
			</g>
			<g>
				<g>
					<path style="fill:#91B3FA;" d="M1200.315,716.768c-0.896-0.339-1.563-1.164-1.637-2.163c-0.246-3.296-0.427-6.651-0.536-9.974
						c-0.045-1.365,1.043-2.49,2.431-2.513c3.365-0.076,2.454,3.281,3.12,12.199c0.103,1.362-0.938,2.532-2.323,2.611
						C1200.999,716.95,1200.642,716.892,1200.315,716.768z"/>
					<path style="fill:#91B3FA;" d="M1199.142,673.56c0.616-6.319,1.496-12.691,2.615-18.936c0.241-1.341,1.544-2.22,2.911-1.963
						c3.724,0.722,1.296,2.821-0.521,21.444c-0.132,1.357-1.359,2.334-2.742,2.184C1200.004,676.135,1199.011,674.9,1199.142,673.56
						z M1209.169,624.503c1.916-6.081,4.111-12.199,6.45-17.97c1.253-3.104,5.881-1.086,4.675,1.887
						c-2.327,5.755-4.444,11.659-6.32,17.61c-0.409,1.299-1.817,2.008-3.143,1.587
						C1209.49,627.189,1208.765,625.788,1209.169,624.503z M1229.082,578.597c3.118-5.519,6.5-10.984,10.056-16.244
						c1.835-2.71,6.025,0.08,4.201,2.778c-3.484,5.154-6.798,10.509-9.852,15.915
						C1231.879,583.891,1227.479,581.433,1229.082,578.597z M1258.46,541.279c-1.053-0.905-1.174-2.467-0.268-3.488
						c4.213-4.758,8.678-9.412,13.268-13.831c2.361-2.271,5.905,1.286,3.547,3.557c-4.497,4.33-8.873,8.889-13.002,13.551
						C1261.1,542.091,1259.511,542.185,1258.46,541.279z M1294.809,507.283c-0.847-1.094-0.642-2.642,0.459-3.459
						c5.129-3.803,10.474-7.451,15.889-10.842c2.788-1.738,5.534,2.434,2.747,4.181c-5.306,3.323-10.544,6.897-15.569,10.624
						C1297.236,508.602,1295.657,508.377,1294.809,507.283z M1338.915,482.618c-0.589-0.222-1.095-0.657-1.39-1.26
						c-0.607-1.236-0.087-2.708,1.163-3.285c5.824-2.693,11.824-5.189,17.835-7.422c1.293-0.48,2.751,0.166,3.26,1.445
						c0.507,1.278-0.129,2.702-1.421,3.183c-5.891,2.187-11.771,4.634-17.479,7.273
						C1340.243,482.849,1339.534,482.852,1338.915,482.618z M1386.377,466.294c-0.752-0.284-1.358-0.913-1.57-1.736
						c-0.34-1.329,0.476-2.66,1.821-2.975c6.266-1.465,12.674-2.704,19.046-3.681c1.368-0.213,2.669,0.711,2.902,2.062
						c0.234,1.348-0.685,2.612-2.054,2.822c-6.243,0.958-12.522,2.172-18.661,3.608
						C1387.351,466.513,1386.837,466.468,1386.377,466.294z M1434.731,457.623c-0.058-1.365,1.019-2.5,2.407-2.536
						c6.453-0.17,13.006-0.088,19.476,0.241c3.333,0.179,3.13,5.104-0.185,4.936c-6.338-0.323-12.758-0.402-19.08-0.236
						C1435.964,460.065,1434.789,458.99,1434.731,457.623z M1595.803,511.311c-15.059-11.5-18.446-11.314-16.379-14.432
						c0.752-1.137,2.306-1.44,3.474-0.688c5.436,3.522,10.803,7.302,15.951,11.234
						C1601.493,509.441,1598.455,513.332,1595.803,511.311z M1485.2,460.909c0.227-1.343,1.521-2.235,2.891-1.991
						c6.372,1.132,12.789,2.524,19.073,4.14c3.23,0.832,2.022,5.611-1.203,4.781c-6.158-1.583-12.447-2.948-18.691-4.058
						C1485.884,463.533,1484.975,462.238,1485.2,460.909z M1553.093,485.068c-17.043-8.238-20.361-7.391-18.988-10.88
						c0.87-2.212,3.551-1.385,3.249-1.372c6.054,2.375,12.077,5.008,17.902,7.821c1.254,0.606,1.785,2.089,1.188,3.312
						C1555.873,485.117,1554.427,485.692,1553.093,485.068z"/>
					<path style="fill:#91B3FA;" d="M1626.257,538.855c-5.774-6.168-9.357-8.257-6.955-10.61c0.974-0.956,2.566-0.948,3.555,0.032
						c6.228,6.138,9.352,8.585,6.954,10.75C1629.092,539.676,1627.203,539.862,1626.257,538.855z"/>
				</g>
				<g>
					<path style="fill:#91B3FA;" d="M1693.504,718.98c-1.005-0.38-1.698-1.367-1.638-2.474c0.175-3.247,0.283-6.533,0.323-9.77
						c0.017-1.365,1.156-2.44,2.545-2.403c1.385,0.041,2.5,1.172,2.484,2.538c-0.041,3.303-0.152,6.656-0.33,9.971
						c-0.073,1.362-1.257,2.391-2.643,2.298C1693.985,719.123,1693.736,719.068,1693.504,718.98z"/>
					<path style="fill:#91B3FA;" d="M1354.433,926.524c-6.469-2.646-12.902-5.592-19.12-8.756c-1.241-0.631-1.742-2.124-1.117-3.334
						c1.759-3.409,3.184-0.212,22.109,7.531c1.289,0.527,1.915,1.975,1.397,3.234
						C1356.798,927.399,1354.131,926.534,1354.433,926.524z M1385.004,934.32c0.953-3.709,3.152-0.875,23.163,2.663
						c1.374,0.236,2.298,1.529,2.073,2.87c-0.226,1.344-1.52,2.236-2.889,1.994c-6.848-1.21-13.753-2.725-20.522-4.501
						C1385.472,936.989,1384.667,935.631,1385.004,934.32z M1305.992,900.28c-5.729-3.966-11.367-8.223-16.754-12.652
						c-1.072-0.882-1.228-2.442-0.346-3.484c2.485-2.937,3.156,0.483,19.953,12.107c1.143,0.792,1.432,2.335,0.644,3.447
						C1308.701,900.81,1307.137,901.069,1305.992,900.28z M1440.445,945.36c-0.982-0.371-1.671-1.322-1.642-2.408
						c0.036-1.364,1.19-2.424,2.578-2.367c6.831,0.276,13.741,0.269,20.538-0.022c1.39-0.059,2.576,0.997,2.657,2.361
						c0.082,1.365-0.976,2.518-2.362,2.577c-6.939,0.297-13.993,0.304-20.965,0.022
						C1440.968,945.511,1440.696,945.454,1440.445,945.36z M1494.612,941.634c-0.793-0.3-1.421-0.984-1.598-1.863
						c-0.27-1.342,0.615-2.629,1.978-2.875c6.685-1.202,13.401-2.703,19.963-4.46c1.335-0.357,2.727,0.421,3.111,1.738
						c0.383,1.318-0.388,2.675-1.721,3.032c-6.697,1.794-13.552,3.324-20.376,4.552
						C1495.499,941.844,1495.032,941.792,1494.612,941.634z M1546.462,926.302c-0.616-0.233-1.142-0.699-1.429-1.341
						c-0.561-1.256,0.014-2.707,1.284-3.24c6.239-2.616,12.44-5.527,18.431-8.651c1.22-0.634,2.745-0.171,3.411,1.036
						c0.665,1.208,0.216,2.703-1.003,3.338c-6.114,3.188-12.441,6.158-18.808,8.828
						C1547.726,926.532,1547.053,926.525,1546.462,926.302z M1593.51,900.172c-0.444-0.168-0.849-0.461-1.151-0.868
						c-0.824-1.111-0.586-2.655,0.532-3.448c5.492-3.896,10.88-8.075,16.015-12.417c1.044-0.884,2.632-0.759,3.547,0.284
						c0.915,1.04,0.81,2.599-0.235,3.483c-5.24,4.432-10.738,8.696-16.343,12.673
						C1595.167,900.381,1594.277,900.462,1593.51,900.172z M1632.71,864.029c-2.95-2.56,0.523-3.072,12.548-19.102
						c1.958-2.612,6.024,0.359,4.062,2.972c-4.103,5.469-8.498,10.831-13.064,15.935
						C1635.35,864.847,1633.765,864.944,1632.71,864.029z M1664.056,820.768c-3.443-1.865-0.199-3.096,7.91-21.406
						c1.315-2.968,5.939-0.956,4.616,2.029c-2.767,6.249-5.836,12.445-9.122,18.418
						C1666.793,821.019,1665.247,821.424,1664.056,820.768z M1684.651,771.608c-1.216-0.459-1.904-1.763-1.548-3.006
						c1.847-6.461,3.434-13.053,4.715-19.59c0.263-1.336,1.58-2.194,2.944-1.917c1.367,0.286,2.256,1.586,1.995,2.923
						c-1.308,6.672-2.927,13.396-4.812,19.988c-0.373,1.309-1.76,2.055-3.098,1.667
						C1684.78,771.654,1684.715,771.632,1684.651,771.608z"/>
					<path style="fill:#91B3FA;" d="M1264.352,864.157c-5.946-6.42-8.945-8.997-6.445-11.048c2.599-2.135,4.054,1.175,10.141,7.752
						c0.942,1.017,0.877,2.58-0.143,3.489C1266.884,865.261,1265.293,865.174,1264.352,864.157z"/>
				</g>
				<g>
					<path style="fill:#91B3FA;" d="M1291.843,801.685l35.732-4.425c10.886,12.806,23.902,24.029,38.749,33.061
						c1.394,34.454-0.95,36.969,2.732,38.197l41.18,13.719c1.203,0.4,2.522,0.01,3.282-0.971l21.687-27.997
						c17.284,1.67,34.406,0.489,50.767-3.24l25.995,24.989c0.911,0.875,2.279,1.095,3.405,0.547l38.548-18.779
						c1.127-0.549,1.764-1.745,1.587-2.979l-5.042-35.195c12.864-10.508,24.085-23.135,33.051-37.593l36.057-0.134
						c1.265-0.004,2.375-0.798,2.765-1.974l13.335-40.277c0.39-1.177-0.027-2.479-1.038-3.242l-28.814-21.744
						c1.439-16.966-0.022-33.817-4.064-49.957c23.922-25.104,27.284-25.125,25.535-28.516
						c-19.969-37.11-18.831-40.269-22.745-39.786l-35.732,4.425c-10.886-12.807-23.903-24.029-38.749-33.061
						c-1.393-34.434,0.952-36.968-2.732-38.198c-41.149-12.927-42.132-15.758-44.463-12.747l-21.688,27.997
						c-17.283-1.672-34.406-0.49-50.767,3.239c-25.588-23.606-25.924-27.229-29.399-25.535
						c-37.817,19.254-40.679,17.956-40.135,21.758l5.042,35.195c-12.865,10.508-24.085,23.135-33.05,37.594
						c-34.418,0.834-37.606-1.57-38.822,2.109c-12.476,40.081-15.414,41.164-12.297,43.518l28.813,21.745
						c-1.438,16.965,0.023,33.816,4.064,49.957c-23.841,25.019-27.291,25.107-25.535,28.517
						C1289.067,799.009,1287.929,802.168,1291.843,801.685z"/>
					
						<linearGradient id="SVGID_00000153685073832471557910000011804265835155452803_" gradientUnits="userSpaceOnUse" x1="1405.988" y1="698.5356" x2="1490.4033" y2="698.5356">
						<stop  offset="0" style="stop-color:#DAE3FE"/>
						<stop  offset="1" style="stop-color:#E9EFFD"/>
					</linearGradient>
					<path style="fill:url(#SVGID_00000153685073832471557910000011804265835155452803_);" d="M1406.081,695.177
						c1.532-22.801,21.671-39.846,44.893-37.994c23.219,1.858,40.867,21.908,39.337,44.709
						c-1.534,22.801-21.672,39.845-44.894,37.995l0,0C1422.189,738.037,1404.549,717.974,1406.081,695.177z M1445.665,736.193
						l0.023,0.009L1445.665,736.193z M1450.478,664.574c-18.849-1.504-35.594,12.196-36.87,31.203
						c-1.259,18.727,13.233,35.205,32.306,36.72c19.072,1.52,35.612-12.478,36.87-31.204
						C1484.044,682.538,1469.515,666.088,1450.478,664.574z"/>
					
						<linearGradient id="SVGID_00000128486394883137749200000004590229592320681090_" gradientUnits="userSpaceOnUse" x1="1340.745" y1="698.2062" x2="1557.2491" y2="698.2062">
						<stop  offset="0" style="stop-color:#DAE3FE"/>
						<stop  offset="1" style="stop-color:#E9EFFD"/>
					</linearGradient>
					<path style="fill:url(#SVGID_00000128486394883137749200000004590229592320681090_);" d="M1411.456,797.278L1411.456,797.278
						c-5.852-2.21-11.508-4.903-16.864-8.035c-1.61-0.941-2.272-2.859-1.65-4.51c0.074-0.197,0.167-0.39,0.278-0.576
						c1.045-1.756,3.359-2.321,5.154-1.271c6.16,3.601,12.752,6.58,19.587,8.862l0,0c51.498,17.155,106.862-8.765,125.443-57.956
						c0.474-1.256,0.924-2.528,1.351-3.814c17.204-51.969-12.041-108.004-64.765-125.584
						c-52.652-17.541-109.609,9.944-126.793,61.77c-10.212,30.853-1.287,51.557-2.487,54.733c-1.296,3.432-6.375,3.031-7.214-0.554
						c-4.584-19.582-3.564-40.702,3.977-60.67c32.545-86.156,155.151-91.403,197.876-8.552c13.149,25.496,15.486,54.35,6.58,81.247
						c-0.46,1.392-0.949,2.77-1.463,4.134c-9.435,24.986-27.855,45.129-52.265,57.022c-25.742,12.539-55.065,14.401-82.564,5.24
						C1414.235,798.297,1412.839,797.801,1411.456,797.278z"/>
				</g>
			</g>
		</g>
		<g>
			
				<linearGradient id="SVGID_00000051378460881306153270000016392057859291687561_" gradientUnits="userSpaceOnUse" x1="1644.615" y1="1250.551" x2="1066.3065" y2="1686.8188">
				<stop  offset="0" style="stop-color:#4F52FF"/>
				<stop  offset="1" style="stop-color:#4042E2"/>
			</linearGradient>
			<path style="fill:url(#SVGID_00000051378460881306153270000016392057859291687561_);" d="M1347.251,1362.637l-63.071,97.031
				c29.34,57.16,61.93,88.716,94.533,103.716c5.822-35.612,26.62-65.172,41.89-82.73
				C1362.442,1447.571,1347.251,1362.637,1347.251,1362.637z"/>
			
				<linearGradient id="SVGID_00000054229832570650743330000011884575760575074479_" gradientUnits="userSpaceOnUse" x1="1611.1556" y1="1445.6793" x2="1137.303" y2="1675.2274">
				<stop  offset="0" style="stop-color:#FEBBBA"/>
				<stop  offset="1" style="stop-color:#FF928E"/>
			</linearGradient>
			<path style="fill:url(#SVGID_00000054229832570650743330000011884575760575074479_);" d="M1563.949,1463.235
				c-64.573,38.219-110.721,35.977-143.346,17.419c-15.271,17.558-36.069,47.118-41.89,82.73
				c103.646,47.688,207.434-72.341,207.434-72.341L1563.949,1463.235z"/>
			
				<linearGradient id="SVGID_00000050664286261166404930000009576533375226469511_" gradientUnits="userSpaceOnUse" x1="642.5623" y1="2196.0222" x2="716.746" y2="2196.0222">
				<stop  offset="0" style="stop-color:#09005D"/>
				<stop  offset="1" style="stop-color:#1A0F91"/>
			</linearGradient>
			<path style="fill:url(#SVGID_00000050664286261166404930000009576533375226469511_);" d="M650.03,2114.871
				c-5.612,3.378-8.48,10.493-7.143,17.464c5.264,27.435,22.569,99.904,64.603,142.805c2.776,2.833,6.815,2.581,9.255,0.027
				c-10.644-11.089-23.842-30.043-39.269-62.233C653.766,2163.458,649.374,2132.945,650.03,2114.871z"/>
			
				<linearGradient id="SVGID_00000021112015289263216420000017391233497044464300_" gradientUnits="userSpaceOnUse" x1="649.9697" y1="2191.3584" x2="728.9113" y2="2191.3584">
				<stop  offset="0" style="stop-color:#09005D"/>
				<stop  offset="1" style="stop-color:#1A0F91"/>
			</linearGradient>
			<path style="fill:url(#SVGID_00000021112015289263216420000017391233497044464300_);" d="M704.308,2113.845
				c0,0-27.102-14.742-54.089,0.893c-0.068,0.039-0.123,0.093-0.189,0.133c-0.656,18.074,3.735,48.588,27.447,98.063
				c15.428,32.19,28.625,51.145,39.269,62.233c0.772-0.808,1.394-1.835,1.753-3.083
				C726.395,2244.654,743.067,2168.44,704.308,2113.845z"/>
			
				<linearGradient id="SVGID_00000069358742570043067410000011226836576556971443_" gradientUnits="userSpaceOnUse" x1="689.3798" y1="2111.5354" x2="747.4304" y2="2111.5354">
				<stop  offset="0" style="stop-color:#FEBBBA"/>
				<stop  offset="1" style="stop-color:#FF928E"/>
			</linearGradient>
			<path style="fill:url(#SVGID_00000069358742570043067410000011226836576556971443_);" d="M743.453,2115.552l-24.56,23.564
				c-4.344,4.167-11.006,4.839-16.022,1.51c-4.375-2.904-9.246-7.667-12.488-15.385c-1.945-4.632-1.011-9.991,2.368-13.708
				l24.52-26.972c5.852-6.437,16.264-5.373,20.692,2.116l7.667,12.967C748.685,2104.81,747.783,2111.398,743.453,2115.552z"/>
			
				<linearGradient id="SVGID_00000053534574592882127270000008380992820930680748_" gradientUnits="userSpaceOnUse" x1="1537.2717" y1="1929.6703" x2="1648.4785" y2="1929.6703">
				<stop  offset="0" style="stop-color:#09005D"/>
				<stop  offset="1" style="stop-color:#1A0F91"/>
			</linearGradient>
			<path style="fill:url(#SVGID_00000053534574592882127270000008380992820930680748_);" d="M1537.272,1997.35
				c5.71,3.21,13.313,2.186,18.712-2.422c21.248-18.136,75.694-68.996,92.215-126.742c1.09-3.813-1.124-7.199-4.551-8.059
				c-4.379,14.734-14.334,35.575-34.693,64.896C1577.664,1970.089,1553.308,1988.988,1537.272,1997.35z"/>
			
				<linearGradient id="SVGID_00000084491706326720887490000017530535936596999809_" gradientUnits="userSpaceOnUse" x1="1509.5544" y1="1928.6309" x2="1643.6477" y2="1928.6309">
				<stop  offset="0" style="stop-color:#09005D"/>
				<stop  offset="1" style="stop-color:#1A0F91"/>
			</linearGradient>
			<path style="fill:url(#SVGID_00000084491706326720887490000017530535936596999809_);" d="M1509.554,1950.672
				c0,0,0.579,30.847,27.509,46.579c0.067,0.04,0.141,0.061,0.208,0.099c16.036-8.363,40.393-27.262,71.683-72.326
				c20.359-29.321,30.314-50.162,34.693-64.896c-1.084-0.272-2.284-0.305-3.546,0
				C1612.353,1866.821,1537.859,1889.995,1509.554,1950.672z"/>
			
				<linearGradient id="SVGID_00000046332590807630843850000002202577629455771807_" gradientUnits="userSpaceOnUse" x1="1474.0057" y1="1924.7472" x2="1537.7842" y2="1924.7472">
				<stop  offset="0" style="stop-color:#FEBBBA"/>
				<stop  offset="1" style="stop-color:#FF928E"/>
			</linearGradient>
			<path style="fill:url(#SVGID_00000046332590807630843850000002202577629455771807_);" d="M1507.654,1899.593l25.664,22.357
				c4.539,3.954,5.803,10.53,2.935,15.823c-2.501,4.617-6.81,9.894-14.208,13.812c-4.439,2.352-9.86,1.9-13.865-1.134
				l-29.055-22.012c-6.935-5.254-6.804-15.719,0.259-20.799l12.23-8.795C1496.488,1895.342,1503.13,1895.652,1507.654,1899.593z"/>
			
				<linearGradient id="SVGID_00000156570654740627202730000015007522653164502719_" gradientUnits="userSpaceOnUse" x1="1074.4781" y1="1747.3157" x2="632.5739" y2="2108.0542">
				<stop  offset="0" style="stop-color:#09005D"/>
				<stop  offset="1" style="stop-color:#1A0F91"/>
			</linearGradient>
			<path style="fill:url(#SVGID_00000156570654740627202730000015007522653164502719_);" d="M992.744,1673.312
				c0,0-50.078,170.601-82.453,245.584c0,0-56.596,8.633-91.625,29.101c-35.029,20.468-110.481,133.907-110.481,133.907
				s19.705,37.407,43.479,43.146l214.791-148.826l171.423-199.352l-8.137-92.464L992.744,1673.312z"/>
			
				<linearGradient id="SVGID_00000063598579950751347400000009507427839080739236_" gradientUnits="userSpaceOnUse" x1="1617.7192" y1="1934.0657" x2="1092.3955" y2="1679.2948">
				<stop  offset="0" style="stop-color:#09005D"/>
				<stop  offset="1" style="stop-color:#1A0F91"/>
			</linearGradient>
			<path style="fill:url(#SVGID_00000063598579950751347400000009507427839080739236_);" d="M995.829,1659.396l-14.654,46.718
				c0,0,13.403,122.48,167.812,101.827c154.409-20.654,173.817-45.862,173.817-45.862s-13.404,78.224,155.437,172.276
				c0,0,25.664-19.373,31.313-41.374l-118.32-195.015c-16.458-25.58-31.72-32.318-61.772-27.618
				c-66.449,10.392-190.872,23.937-209.703,20.721L995.829,1659.396z"/>
			
				<linearGradient id="SVGID_00000116195947462969387800000012498572356708094618_" gradientUnits="userSpaceOnUse" x1="1567.8256" y1="1148.7599" x2="989.5189" y2="1585.0264">
				<stop  offset="0" style="stop-color:#4F52FF"/>
				<stop  offset="1" style="stop-color:#4042E2"/>
			</linearGradient>
			<path style="fill:url(#SVGID_00000116195947462969387800000012498572356708094618_);" d="M1116.426,1312.001
				c-44.998,2.289-116.127,23.679-162.073,65.978c14.123,15.589,35.852,40.937,52.05,65.976
				c14.473-13.589,35.258-24.907,64.522-32.155c-25.294,94.536-55.192,184.604-91.625,268.325c-2.28,5.24,0.317,11.301,5.713,13.182
				c28.192,9.824,111.331,33.222,178.015-4.459l147.839-211.689c15.9-22.766,26.351-48.883,30.548-76.332l5.838-38.188
				C1347.251,1362.637,1214.475,1307.015,1116.426,1312.001z"/>
			
				<linearGradient id="SVGID_00000098905979633930088280000015614539481158511033_" gradientUnits="userSpaceOnUse" x1="1201.371" y1="1387.3148" x2="1230.8843" y2="1303.1472">
				<stop  offset="0" style="stop-color:#FEBBBA"/>
				<stop  offset="1" style="stop-color:#FF928E"/>
			</linearGradient>
			<path style="fill:url(#SVGID_00000098905979633930088280000015614539481158511033_);" d="M1216.286,1255.774l-38.624,75.6
				c-2.356,4.612-1.655,10.186,1.805,14.04c9.353,10.417,31.441,27.336,69.864,15.211c4.236-1.337,7.285-5.061,7.929-9.456
				l10.058-68.659L1216.286,1255.774z"/>
			<g>
				
					<linearGradient id="SVGID_00000176035028529371124430000003722972043982064807_" gradientUnits="userSpaceOnUse" x1="1285.4254" y1="1213.7947" x2="1155.9203" y2="1312.8859">
					<stop  offset="0" style="stop-color:#FEBBBA"/>
					<stop  offset="1" style="stop-color:#FF928E"/>
				</linearGradient>
				<path style="fill:url(#SVGID_00000176035028529371124430000003722972043982064807_);" d="M1280.677,1167.988
					c0,0,22.654,52.04,24.175,79.354c1.521,27.314,7.407,45.038-24.175,50.538c-31.582,5.5-58.187-10.233-72.601-37.44
					c0,0-22.583-41.924-17.517-59.094C1195.625,1184.176,1280.677,1167.988,1280.677,1167.988z"/>
				
					<linearGradient id="SVGID_00000082361623970882267100000004205334600488825499_" gradientUnits="userSpaceOnUse" x1="1194.2596" y1="1135.3363" x2="1314.873" y2="1290.6259">
					<stop  offset="0" style="stop-color:#09005D"/>
					<stop  offset="1" style="stop-color:#1A0F91"/>
				</linearGradient>
				<path style="fill:url(#SVGID_00000082361623970882267100000004205334600488825499_);" d="M1218.868,1240.877l1.798-0.792
					c2.289-1.009,3.268-3.734,2.118-5.955c-4.453-8.605-13.135-28.323-1.92-32.923c14.454-5.928,71.71-17.604,84.063-37.92
					c11.872-19.526,1.353-44.73-14.457-51.899c-1.058-0.48-2.305-0.099-2.848,0.928l-1.318,2.493
					c-0.902,1.707-3.422,1.448-3.959-0.406l0,0c-0.515-1.78-2.883-2.125-3.864-0.554c-3.798,6.078-14.049,15.932-41.464,20.992
					c-38.962,7.191-64.721,22.958-65.363,49.881c-0.041,1.71-1.86,2.661-3.322,1.771c-2.877-1.753-7.48-2.576-13.633,2.597
					c-10.7,8.997-6.322,32.337,17.135,51.535c1.114,0.912,1.105,2.652-0.101,3.437c-4.253,2.768-10.592,9.355,5.834,18.135
					c16.99,9.082,29.677,8.337,34.562,7.531c1.215-0.201,1.999-1.377,1.734-2.58l-5.214-23.663
					c-0.295-1.339,0.724-2.608,2.096-2.608H1218.868z"/>
				
					<linearGradient id="SVGID_00000030473264100946394330000005557894039890703536_" gradientUnits="userSpaceOnUse" x1="1269.3621" y1="1192.8005" x2="1139.8566" y2="1291.892">
					<stop  offset="0" style="stop-color:#FEBBBA"/>
					<stop  offset="1" style="stop-color:#FF928E"/>
				</linearGradient>
				<path style="fill:url(#SVGID_00000030473264100946394330000005557894039890703536_);" d="M1219.849,1245.87
					c0,0-8.642-33.242-23.547-23.922c-14.904,9.321,7.734,37.246,19.716,38.491L1219.849,1245.87z"/>
			</g>
			<g>
				
					<linearGradient id="SVGID_00000111906440792481666480000013691922283104511651_" gradientUnits="userSpaceOnUse" x1="-1913.7367" y1="1380.8719" x2="-2175.2659" y2="1929.5145" gradientTransform="matrix(-0.3115 0.9502 -0.9502 -0.3115 2589.9236 3810.0129)">
					<stop  offset="0" style="stop-color:#E1473D"/>
					<stop  offset="1" style="stop-color:#E9605A"/>
				</linearGradient>
				<path style="fill:url(#SVGID_00000111906440792481666480000013691922283104511651_);" d="M1700.456,987.627
					c-88.176-26.375-181.039,23.725-207.414,111.902c-21.437,71.669,7.649,146.432,66.637,186.076l-91.638,306.365
					c-1.522,5.088-0.335,10.603,3.146,14.615l21.292,24.536c0.367,0.422,0.757,0.813,1.159,1.187
					c0.113,0.106,0.231,0.203,0.347,0.305c0.312,0.274,0.633,0.534,0.962,0.78c0.113,0.083,0.224,0.167,0.338,0.247
					c0.427,0.3,0.864,0.581,1.314,0.833c0.006,0.004,0.013,0.008,0.02,0.012c4.818,2.696,10.866,2.699,15.781-0.362l51.955-32.362
					c3.209-1.999,5.578-5.101,6.662-8.723l9.178-30.686l-16.061-4.804l7.885-26.362l16.061,4.804l7.376-24.662l-14.775-4.419
					l9.583-32.038l14.775,4.419l3.57-11.937l-7.605-2.275l8.033-26.858l7.606,2.275l6.248-20.89l-16.061-4.804l4.463-14.922
					l16.061,4.804l3.868-12.932l-16.061-4.804l7.736-25.863l16.061,4.804l10.874-36.353l0,0l4.657-15.568
					c71.068-0.743,136.429-47.254,157.867-118.925C1838.733,1106.863,1788.633,1014.001,1700.456,987.627z M1706.453,1085.332
					c-5.341,17.854-24.145,28-42,22.66c-17.855-5.341-28-24.146-22.659-42c5.34-17.854,24.144-28.001,42-22.66
					C1701.649,1048.673,1711.793,1067.478,1706.453,1085.332z"/>
				
					<linearGradient id="SVGID_00000008127958916714550580000017012165041845380761_" gradientUnits="userSpaceOnUse" x1="-4695.8784" y1="-2101.5955" x2="-4927.8716" y2="-1640.0016" gradientTransform="matrix(0.4278 0.9039 -0.9039 0.4278 2081.3438 6584.5181)">
					<stop  offset="0" style="stop-color:#E1473D"/>
					<stop  offset="1" style="stop-color:#E9605A"/>
				</linearGradient>
				<path style="fill:url(#SVGID_00000008127958916714550580000017012165041845380761_);" d="M1691.752,1224.195l-43.442,145.234
					l-16.061-4.804l-7.736,25.863l16.061,4.804l-3.868,12.932l-16.061-4.804l-4.463,14.922l16.061,4.804l-6.249,20.89l-7.606-2.275
					l-8.034,26.858l7.606,2.275l-3.57,11.937l-14.775-4.419l-9.583,32.038l14.775,4.419l-7.377,24.663l-16.061-4.804l-7.885,26.362
					l16.061,4.804l-9.178,30.686c-1.084,3.623-3.453,6.724-6.662,8.723l-51.955,32.362c-6.475,4.033-14.922,2.76-19.921-3.001
					l-21.292-24.536c-3.481-4.012-4.668-9.526-3.146-14.615l110.622-369.834L1691.752,1224.195z"/>
				
					<linearGradient id="SVGID_00000024689763346680874030000006476286319640384184_" gradientUnits="userSpaceOnUse" x1="-2314.0391" y1="1531.6251" x2="-1971.3812" y2="2335.3135" gradientTransform="matrix(-0.3115 0.9502 -0.9502 -0.3115 2589.9236 3810.0129)">
					<stop  offset="0" style="stop-color:#FF9085"/>
					<stop  offset="1" style="stop-color:#FB6FBB"/>
				</linearGradient>
				<path style="fill:url(#SVGID_00000024689763346680874030000006476286319640384184_);" d="M1502.391,1103.071
					c-26.375,88.177,23.725,181.039,111.902,207.414c88.177,26.375,181.039-23.725,207.414-111.902
					c26.375-88.177-23.726-181.039-111.902-207.414C1621.629,964.794,1528.766,1014.893,1502.391,1103.071z M1651.143,1069.534
					c5.341-17.854,24.145-28.001,42-22.66c17.855,5.341,28,24.146,22.659,42c-5.341,17.855-24.145,28.001-42,22.66
					C1655.947,1106.193,1645.802,1087.389,1651.143,1069.534z"/>
				
					<linearGradient id="SVGID_00000176726407836839745460000017184768208435975316_" gradientUnits="userSpaceOnUse" x1="-2040.7775" y1="1640.0082" x2="-2318.3867" y2="2195.2256" gradientTransform="matrix(-0.3115 0.9502 -0.9502 -0.3115 2589.9236 3810.0129)">
					<stop  offset="0" style="stop-color:#FF928E"/>
					<stop  offset="1" style="stop-color:#FE7062"/>
				</linearGradient>
				<path style="fill:url(#SVGID_00000176726407836839745460000017184768208435975316_);" d="M1569.028,1289.147l-91.638,306.365
					c-1.522,5.088-0.335,10.603,3.146,14.615l21.292,24.536c3.211,3.7,7.842,5.521,12.461,5.302
					c23.147-30.577,85.763-292.987,106.001-306.012c7.199-4.633,18.882-7.302,38.894-0.878l4.657-15.568
					c71.068-0.743,136.429-47.254,157.867-118.925c26.375-88.177-23.726-181.039-111.902-207.414
					c-88.177-26.375-181.039,23.725-207.414,111.902C1480.954,1174.74,1510.04,1249.503,1569.028,1289.147z M1715.802,1088.874
					c-5.341,17.855-24.145,28.001-42,22.66c-17.855-5.341-28-24.146-22.659-42c5.341-17.854,24.145-28.001,42-22.66
					C1710.998,1052.215,1721.143,1071.02,1715.802,1088.874z"/>
				
					<linearGradient id="SVGID_00000079471172390294097290000018384907166756275620_" gradientUnits="userSpaceOnUse" x1="2143.4063" y1="867.4744" x2="1904.9808" y2="1007.8241">
					<stop  offset="0" style="stop-color:#FF928E"/>
					<stop  offset="1" style="stop-color:#FE7062"/>
				</linearGradient>
				<path style="fill:url(#SVGID_00000079471172390294097290000018384907166756275620_);" d="M1533.726,1112.443
					c-21.199,70.872,19.069,145.508,89.94,166.707c70.871,21.198,145.508-19.068,166.706-89.94
					c21.199-70.872-19.069-145.508-89.94-166.707C1629.562,1001.305,1554.925,1041.571,1533.726,1112.443z M1651.143,1069.534
					c5.341-17.854,24.145-28.001,42-22.66c17.855,5.341,28,24.146,22.659,42c-5.341,17.855-24.145,28.001-42,22.66
					C1655.947,1106.193,1645.802,1087.389,1651.143,1069.534z"/>
			</g>
			
				<linearGradient id="SVGID_00000044886208193064547120000014323804037923792266_" gradientUnits="userSpaceOnUse" x1="1023.0933" y1="1600.6301" x2="741.0773" y2="1102.1827">
				<stop  offset="0" style="stop-color:#FEBBBA"/>
				<stop  offset="1" style="stop-color:#FF928E"/>
			</linearGradient>
			<path style="fill:url(#SVGID_00000044886208193064547120000014323804037923792266_);" d="M1035.797,1632.342
				c-6.426-14.188-28.423-27.444-38.922-33.139c-9.133-18.828-45.591-103.502,9.527-155.248
				c-16.198-25.039-37.927-50.386-52.05-65.976c-53.012,48.805-72.419,125.471,20.543,232.816
				c-5.074,26.439,11.482,57.226,20.435,61.541C999.455,1674.323,1044.337,1651.197,1035.797,1632.342z"/>
			
				<linearGradient id="SVGID_00000018928723371568936880000003689189886516793527_" gradientUnits="userSpaceOnUse" x1="1613.4156" y1="1450.3451" x2="1139.5634" y2="1679.8929">
				<stop  offset="0" style="stop-color:#FEBBBA"/>
				<stop  offset="1" style="stop-color:#FF928E"/>
			</linearGradient>
			<path style="fill:url(#SVGID_00000018928723371568936880000003689189886516793527_);" d="M1567.464,1479.856
				c0,0-17.432-30.391,7.637-53.727c0,0,8.083-9.221,16.959,4.326c0,0,26.969-24.483,34.344-14.621
				c7.375,9.862,26.925,34.282,7.832,62.135C1614.927,1506.138,1575.979,1493.583,1567.464,1479.856z"/>
			
				<linearGradient id="SVGID_00000080191278885850716010000004088959717894680750_" gradientUnits="userSpaceOnUse" x1="1580.0261" y1="1447.8042" x2="1605.1198" y2="1447.8042">
				<stop  offset="0" style="stop-color:#FF928E"/>
				<stop  offset="1" style="stop-color:#FE7062"/>
			</linearGradient>
			<path style="fill:url(#SVGID_00000080191278885850716010000004088959717894680750_);" d="M1593.969,1462.94
				c-2.574,0-5.331-0.476-7.773-1.922c-2.38-1.409-5.377-4.351-6.144-10.367c-0.22-1.728,1.003-3.308,2.731-3.529
				c1.717-0.208,3.309,1.001,3.529,2.731c0.36,2.833,1.371,4.706,3.089,5.729c2.392,1.427,5.949,1.135,8.589,0.567l-6.109-19.374
				c-0.524-1.662,0.397-3.434,2.059-3.957c1.661-0.527,3.435,0.398,3.957,2.059l7.076,22.443c0.499,1.582-0.311,3.278-1.855,3.885
				C1602.467,1461.459,1598.503,1462.94,1593.969,1462.94z"/>
		</g>
	</g>
</g>
</svg>
