<?xml version="1.0" encoding="utf-8"?>
<!-- Generator: Adobe Illustrator 27.5.0, SVG Export Plug-In . SVG Version: 6.00 Build 0)  -->
<svg version="1.1" xmlns="http://www.w3.org/2000/svg" xmlns:xlink="http://www.w3.org/1999/xlink" x="0px" y="0px"
	 viewBox="0 0 500 500" style="enable-background:new 0 0 500 500;" xml:space="preserve">
<g id="Background_Complete">
	<g>
		<rect x="416.779" y="398.494" style="fill:#EBEBEB;" width="33.122" height="0.25"/>
		<rect x="322.527" y="401.208" style="fill:#EBEBEB;" width="8.693" height="0.25"/>
		<rect x="396.586" y="389.208" style="fill:#EBEBEB;" width="19.192" height="0.25"/>
		<rect x="52.459" y="390.888" style="fill:#EBEBEB;" width="43.193" height="0.25"/>
		<rect x="104.556" y="390.888" style="fill:#EBEBEB;" width="6.333" height="0.25"/>
		<rect x="131.471" y="395.111" style="fill:#EBEBEB;" width="93.676" height="0.25"/>
		<path style="fill:#EBEBEB;" d="M237.014,337.8H43.915c-3.147,0-5.708-2.561-5.708-5.708V60.66c0-3.147,2.561-5.708,5.708-5.708
			h193.099c3.146,0,5.707,2.561,5.707,5.708v271.432C242.721,335.239,240.16,337.8,237.014,337.8z M43.915,55.203
			c-3.01,0-5.458,2.448-5.458,5.458v271.432c0,3.01,2.448,5.458,5.458,5.458h193.099c3.009,0,5.457-2.448,5.457-5.458V60.66
			c0-3.009-2.448-5.458-5.457-5.458H43.915z"/>
		<path style="fill:#EBEBEB;" d="M453.31,337.8H260.212c-3.147,0-5.707-2.561-5.707-5.708V60.66c0-3.147,2.561-5.708,5.707-5.708
			H453.31c3.148,0,5.708,2.561,5.708,5.708v271.432C459.019,335.239,456.458,337.8,453.31,337.8z M260.212,55.203
			c-3.009,0-5.457,2.448-5.457,5.458v271.432c0,3.01,2.448,5.458,5.457,5.458H453.31c3.01,0,5.458-2.448,5.458-5.458V60.66
			c0-3.009-2.448-5.458-5.458-5.458H260.212z"/>
		<rect y="382.398" style="fill:#EBEBEB;" width="500" height="0.25"/>
	</g>
	<rect x="60.374" y="80.138" style="fill:#F0F0F0;" width="207.898" height="302.51"/>
	<g>
		<rect x="304.059" y="121.779" style="fill:#F5F5F5;" width="145.842" height="181.069"/>
		<path style="fill:#E0E0E0;" d="M435.551,237.571H318.393c-4.282,0-7.754-3.471-7.754-7.754v-91.006
			c0-4.282,3.472-7.754,7.754-7.754h117.157c4.282,0,7.754,3.471,7.754,7.754v91.006
			C443.304,234.099,439.833,237.571,435.551,237.571z"/>
		<g>
			<path style="fill:#EBEBEB;" d="M395.485,237.64h-14.219c-4.752,0-8.604-3.852-8.604-8.604v-27.144
				c0-4.752,3.852-8.604,8.604-8.604h14.219c4.752,0,8.604,3.852,8.604,8.604v27.144C404.09,233.788,400.237,237.64,395.485,237.64z
				"/>
			<rect x="380.475" y="191.358" style="fill:#E6E6E6;" width="16.021" height="2.053"/>
			<rect x="378.39" y="187.189" style="fill:#FAFAFA;" width="20.191" height="5.195"/>
			<rect x="375.295" y="200.958" style="fill:#F5F5F5;" width="26.336" height="28.014"/>
		</g>
		<g>
			<path style="fill:#EBEBEB;" d="M432.57,237.64h-17.164c-3.939,0-7.132-3.193-7.132-7.132v-16.206
				c0-3.939,3.193-7.132,7.132-7.132h17.164c3.939,0,7.132,3.193,7.132,7.132v16.206C439.702,234.447,436.509,237.64,432.57,237.64z
				"/>
			<rect x="416.087" y="205.065" style="fill:#E6E6E6;" width="16.021" height="2.053"/>
			<rect x="414.002" y="200.896" style="fill:#FAFAFA;" width="20.191" height="5.195"/>
			<rect x="410.908" y="212.44" style="fill:#F5F5F5;" width="26.336" height="19.246"/>
		</g>
		<path style="fill:#E0E0E0;" d="M435.526,293.714H318.418c-4.296,0-7.778-3.482-7.778-7.778v-33.089
			c0-4.296,3.482-7.778,7.778-7.778h117.108c4.296,0,7.778,3.482,7.778,7.778v33.089
			C443.304,290.231,439.822,293.714,435.526,293.714z"/>
		<g>
			<rect x="327.019" y="250" style="fill:#FAFAFA;" width="22.444" height="43.173"/>
			<rect x="326.874" y="266.031" style="fill:#FFFFFF;" width="22.811" height="22.811"/>
			<rect x="327.019" y="250" style="fill:#EBEBEB;" width="22.685" height="2.503"/>
		</g>
		<g>
			<polygon style="fill:#FFFFFF;" points="388.729,291.322 395.977,293.752 395.11,281.116 388.262,284.513 			"/>
			<polygon style="fill:#FAFAFA;" points="381.623,290.963 388.715,291.113 388.286,284.868 381.282,285.984 			"/>
			<path style="fill:#F5F5F5;" d="M434.723,275.536l1.267,18.483l-7.69-0.735c-6.492-0.621-13.023-0.708-19.529-0.262l-14.164,0.971
				l-0.876-12.783l14.164-0.971c6.506-0.446,12.964-1.424,19.31-2.925L434.723,275.536z"/>
		</g>
		<g>
			<path style="fill:#FAFAFA;" d="M371.49,273.853h-13.935c-1.919,0-2.05-3.972-0.75-7.593l4.805-13.389
				c0.15-0.419,0.656-0.728,1.144-0.728h3.539c0.487,0,0.993,0.309,1.144,0.728l4.805,13.389
				C373.539,269.881,373.409,273.853,371.49,273.853z"/>
			<path style="fill:#FFFFFF;" d="M371.568,293.562h-14.092c-0.843,0-1.527-0.684-1.527-1.527v-23.133h17.145v23.133
				C373.094,292.878,372.411,293.562,371.568,293.562z"/>
			<path style="fill:#FAFAFA;" d="M367.315,254.611h-5.708c-0.688,0-1.245-0.557-1.245-1.245v-3.446
				c0-0.688,0.557-1.245,1.245-1.245h5.708c0.688,0,1.245,0.557,1.245,1.245v3.446C368.56,254.053,368.003,254.611,367.315,254.611z
				"/>
		</g>
		<g>
			<g>
				<g>
					<path style="fill:#F5F5F5;" d="M359.819,176.171c1.591,3.796,5.958,5.583,9.754,3.992c3.796-1.591,5.583-5.958,3.992-9.754
						c-1.591-3.796-5.958-5.583-9.754-3.992C360.015,168.008,358.228,172.375,359.819,176.171z"/>
				</g>
				<g>
					<path style="fill:#E6E6E6;" d="M359.431,181.407l4.394-1.842l0,0c-0.107-3.147-1.338-6.152-3.47-8.47l-0.148-0.161
						l-4.394,1.842L359.431,181.407z"/>
				</g>
			</g>
			<g>
				<g>
					<path style="fill:#EBEBEB;" d="M319.347,200.566l41.012-17.191l0,0c-1.133-4.117-2.782-8.074-4.909-11.777l-0.102-0.178
						l-41.011,17.191L319.347,200.566z"/>
					<path style="fill:#EBEBEB;" d="M323.586,208.24l15.668-6.568l-0.137-0.321c-1.386-3.236,0.113-6.983,3.348-8.37l0,0
						l-14.262-17.671l-15.668,6.568L323.586,208.24z"/>
					<path style="fill:#F5F5F5;" d="M341.257,237.178l6.685-2.802c1.594-0.668,2.344-2.501,1.676-4.095l-11.749-28.028
						l-12.455,5.221l11.749,28.028C337.83,237.095,339.663,237.846,341.257,237.178z"/>
				</g>
			</g>
			<g>
				
					<rect x="311.376" y="179.136" transform="matrix(-0.9223 0.3866 -0.3866 -0.9223 713.7912 231.5665)" style="fill:#F0F0F0;" width="44.469" height="16.847"/>
			</g>
			<g>
				<g>
					<path style="fill:#E0E0E0;" d="M350.628,181.522c0.005-0.002,0.009-0.003,0.014-0.005c0.255-0.107,0.375-0.4,0.268-0.655
						l-2.486-5.931c-0.107-0.254-0.398-0.353-0.654-0.268c-0.255,0.107-0.375,0.4-0.268,0.654l2.486,5.931
						C350.092,181.499,350.377,181.619,350.628,181.522z"/>
				</g>
				<g>
					<path style="fill:#E0E0E0;" d="M347.907,182.573c0.004-0.002,0.009-0.004,0.014-0.005c0.254-0.107,0.375-0.4,0.268-0.655
						l-2.486-5.931c-0.107-0.254-0.389-0.356-0.655-0.268c-0.254,0.107-0.375,0.4-0.268,0.654l2.486,5.931
						C347.371,182.55,347.655,182.67,347.907,182.573z"/>
				</g>
				<g>
					<path style="fill:#E0E0E0;" d="M345.186,183.624c0.005-0.002,0.009-0.003,0.014-0.005c0.254-0.107,0.375-0.4,0.268-0.655
						l-2.486-5.931c-0.107-0.254-0.408-0.349-0.655-0.268c-0.254,0.107-0.375,0.4-0.268,0.654l2.486,5.931
						C344.65,183.601,344.934,183.721,345.186,183.624z"/>
				</g>
				<g>
					<path style="fill:#E0E0E0;" d="M342.464,184.675c0.005-0.002,0.009-0.003,0.014-0.005c0.254-0.107,0.375-0.4,0.268-0.655
						l-2.486-5.931c-0.107-0.254-0.399-0.352-0.655-0.268c-0.254,0.107-0.375,0.4-0.268,0.654l2.486,5.931
						C341.928,184.652,342.213,184.773,342.464,184.675z"/>
				</g>
			</g>
			<path style="fill:#FFFFFF;" d="M323.024,195.124l8.644-3.624c1.252-0.525,1.842-1.966,1.317-3.218l0,0
				c-0.525-1.252-1.966-1.842-3.218-1.317l-8.644,3.624c-1.252,0.525-1.842,1.966-1.317,3.218l0,0
				C320.331,195.059,321.771,195.648,323.024,195.124z"/>
		</g>
	</g>
	<g>
		<rect x="334.608" y="80.194" style="fill:#FAFAFA;" width="24.415" height="24.415"/>
		<rect x="362.788" y="80.194" style="fill:#FAFAFA;" width="24.415" height="24.415"/>
		<rect x="390.967" y="80.194" style="fill:#FAFAFA;" width="24.415" height="24.415"/>
	</g>
	<rect x="74.099" y="95.337" style="fill:#FAFAFA;" width="180.449" height="295.677"/>
	<g>
		<polygon style="fill:#FFFFFF;" points="137.659,95.337 98.277,381.423 142.053,381.423 182.15,95.337 139.554,95.337 		"/>
	</g>
</g>
<g id="Background_Simple" style="display:none;">
	<g style="display:inline;">
		<path style="fill:#407BFF;" d="M113.332,135.777c20.035-33.664,65.129-57.426,113.341-61.394s98.011,11.342,130.725,38.63
			s48.213,65.665,43.463,102.453c-3.853,29.84-28.073,55.887-60.258,73.124c-11.722,6.278-24.794,11.381-34.409,19.475
			c-18.583,15.645-20.806,39.384-37.993,55.93c-18.94,18.234-54.054,24.01-83.12,16.938c-29.066-7.072-51.988-25.167-65.525-46.01
			c-13.537-20.843-18.602-44.305-20.596-67.514C98.041,256.716,95.56,165.638,113.332,135.777z"/>
		<path style="opacity:0.9;fill:#FFFFFF;" d="M113.332,135.777c20.035-33.664,65.129-57.426,113.341-61.394
			s98.011,11.342,130.725,38.63s48.213,65.665,43.463,102.453c-3.853,29.84-28.073,55.887-60.258,73.124
			c-11.722,6.278-24.794,11.381-34.409,19.475c-18.583,15.645-20.806,39.384-37.993,55.93c-18.94,18.234-54.054,24.01-83.12,16.938
			c-29.066-7.072-51.988-25.167-65.525-46.01c-13.537-20.843-18.602-44.305-20.596-67.514
			C98.041,256.716,95.56,165.638,113.332,135.777z"/>
	</g>
</g>
<g id="Plants">
	<g>
		<path style="fill:#263238;" d="M400.397,401.915h-22.334c-2.125,0-3.944-1.753-4.319-4.161l-2.542-16.331h36.057l-2.543,16.331
			C404.341,400.162,402.522,401.915,400.397,401.915z"/>
		<g>
			<path style="fill:none;stroke:#263238;stroke-linecap:round;stroke-linejoin:round;stroke-miterlimit:10;" d="M382.113,381.087
				c0,0-3.534-20.559-17.102-32.232c-10.593-9.113-21.7-29.673-21.7-29.673"/>
			<g>
				<path style="fill:#407BFF;" d="M367.08,354.589c0,0-14.018-3.198-9.142,6.396c4.876,9.594,16.049,5.482,16.049,5.482
					s9.548-7.086,4.673-15.65C373.784,342.254,367.08,354.589,367.08,354.589z"/>
				<path style="opacity:0.1;" d="M378.66,350.818c-4.876-8.564-11.58,3.771-11.58,3.771s-1.016,6.168,6.907,11.879
					C373.987,366.468,383.536,359.382,378.66,350.818z"/>
			</g>
			<g>
				<path style="fill:#407BFF;" d="M343.845,319.248c0,0-8.891-9.212-9.1,0.125c-0.21,9.337,9.47,11.864,9.47,11.864
					s9.663-0.424,9.471-9.016C353.495,313.629,343.845,319.248,343.845,319.248z"/>
				<path style="opacity:0.1;" d="M353.686,322.221c-0.191-8.592-9.841-2.973-9.841-2.973s-3.136,3.96,0.37,11.989
					C344.215,331.237,353.878,330.813,353.686,322.221z"/>
			</g>
			<g>
				<path style="fill:#407BFF;" d="M355.088,336.651c0,0-3.496-13.013,4.068-9.154s5.366,14.756,5.366,14.756
					s-4.553,9.593-11.346,5.653C346.383,343.965,355.088,336.651,355.088,336.651z"/>
				<path style="opacity:0.1;" d="M353.176,347.905c-6.793-3.94,1.912-11.254,1.912-11.254s4.536-1.447,9.434,5.602
					C364.522,342.253,359.969,351.845,353.176,347.905z"/>
			</g>
			<path style="fill:none;stroke:#263238;stroke-linecap:round;stroke-linejoin:round;stroke-miterlimit:10;" d="M393.694,381.087
				c0,0,5.688-18.238,19.909-28.307c14.221-10.069,20.465-22.405,20.465-22.405"/>
			<path style="fill:none;stroke:#263238;stroke-linecap:round;stroke-linejoin:round;stroke-miterlimit:10;" d="M382.131,327.863
				c0,0,5.699,8.219,6.802,22.955c1.103,14.736,2.119,30.27,2.119,30.27"/>
			<g>
				<path style="fill:#407BFF;" d="M387.764,340.111c0,0-4.083-10.081,5.869-7.472c9.952,2.61,6.507,11.35,6.507,11.35
					s-6.538,7.847-15.454,5.128C375.77,346.398,387.764,340.111,387.764,340.111z"/>
				<path style="opacity:0.1;" d="M384.685,349.117c-8.915-2.719,3.078-9.006,3.078-9.006s6.141-1.407,12.375,3.878
					C400.139,343.989,393.601,351.836,384.685,349.117z"/>
			</g>
			<g>
				<path style="fill:#407BFF;" d="M426.632,341.854c0,0-4.083-10.081,5.869-7.472c9.952,2.61,6.507,11.35,6.507,11.35
					s-6.538,7.847-15.454,5.128C414.638,348.142,426.632,341.854,426.632,341.854z"/>
				<path style="opacity:0.1;" d="M423.553,350.86c-8.916-2.719,3.078-9.006,3.078-9.006s6.141-1.407,12.375,3.878
					C439.007,345.732,432.469,353.579,423.553,350.86z"/>
			</g>
			<g>
				<path style="fill:#407BFF;" d="M404.234,363.489c0,0-1.996-10.848,7.195-5.824c9.191,5.024,4.109,12.689,4.109,12.689
					s-7.922,6.023-16.08,1.152C391.3,366.633,404.234,363.489,404.234,363.489z"/>
				<path style="opacity:0.1;" d="M399.458,371.505c-8.158-4.872,4.776-8.016,4.776-8.016s6.266,0.157,11.304,6.864
					C415.538,370.353,407.617,376.376,399.458,371.505z"/>
			</g>
			<g>
				<path style="fill:#407BFF;" d="M388.81,357.481c0,0-2.784-6.873,4.001-5.094c6.785,1.779,4.436,7.738,4.436,7.738
					s-4.457,5.349-10.535,3.496C380.634,361.768,388.81,357.481,388.81,357.481z"/>
				<path style="opacity:0.1;" d="M386.712,363.621c-6.078-1.853,2.099-6.14,2.099-6.14s4.187-0.959,8.437,2.644
					C397.247,360.125,392.79,365.475,386.712,363.621z"/>
			</g>
			<g>
				<path style="fill:#407BFF;" d="M382.767,327.274c0,0,3.488-10.507-4.6-7.575c-8.088,2.932-5.47,11.874-5.47,11.874
					s5.133,7.946,12.386,4.926C392.336,333.48,382.767,327.274,382.767,327.274z"/>
				<path style="opacity:0.1;" d="M385.084,336.5c7.253-3.02-2.317-9.226-2.317-9.226s-4.934-1.307-10.069,4.299
					C372.698,331.573,377.831,339.52,385.084,336.5z"/>
			</g>
			<g>
				<path style="fill:#407BFF;" d="M433.53,326.416c0,0-3.968-6.56,2.028-6.075c5.996,0.486,5.534,7.125,5.534,7.125
					s-2.339,6.431-7.774,5.727C427.882,332.49,433.53,326.416,433.53,326.416z"/>
				<path style="opacity:0.1;" d="M433.317,333.193c-5.435-0.704,0.212-6.777,0.212-6.777s3.195-1.831,7.562,1.051
					C441.091,327.466,438.753,333.897,433.317,333.193z"/>
			</g>
			<g>
				<path style="fill:#407BFF;" d="M415.729,349.293c0,0,14.172-2.173,6.758-9.425c-7.414-7.253-16.76,0.769-16.76,0.769
					s-6.939,10.228,0.173,16.507C413.013,363.423,415.729,349.293,415.729,349.293z"/>
				<path style="opacity:0.1;" d="M405.901,357.143c7.113,6.28,9.828-7.851,9.828-7.851s-0.848-6.2-10.002-8.657
					C405.727,340.636,398.788,350.864,405.901,357.143z"/>
			</g>
			<g>
				<path style="fill:#407BFF;" d="M379.499,367.437c0,0-3.497-13.013,4.068-9.154c7.564,3.859,5.366,14.756,5.366,14.756
					s-4.553,9.593-11.346,5.653C370.794,374.752,379.499,367.437,379.499,367.437z"/>
				<path style="opacity:0.1;" d="M377.587,378.692c-6.793-3.94,1.912-11.255,1.912-11.255s4.536-1.446,9.434,5.602
					C388.933,373.039,384.38,382.632,377.587,378.692z"/>
			</g>
		</g>
	</g>
</g>
<g id="Character">
	<g>
		<line style="fill:none;stroke:#407BFF;stroke-miterlimit:10;" x1="341.938" y1="652.369" x2="341.817" y2="652.204"/>
	</g>
	<g>
		<g>
			<path style="fill:#B55B52;" d="M115.449,187.928c9.695-1.64,9.577-19.934,9.577-19.934l1.611-9.896
				c0.664-3.451-1.377-6.849-4.735-7.885l-8.055-2.647c-0.081-0.028-0.162-0.054-0.243-0.079c-3.641-1.104-7.488,0.952-8.592,4.593
				l-2.334,7.471c-0.941,3.029-1.222,6.225-0.824,9.371l1.932,15.111L115.449,187.928z"/>
			<path style="fill:#B55B52;" d="M216.457,280.524l0.114,0.142c-3.771,1.588-7.742,2.581-11.826,2.978
				c-3.886,0.369-7.827,0.425-11.741,0.142c-7.771-0.397-15.598-1.078-23.369-2.099c-6.267-0.794-12.506-1.872-18.688-3.205
				c0,0-0.256-0.057-0.709-0.17c-1.503-0.397-24.459-2.028-32.23-7.217c-12.79-8.593-14.223-87.061-14.223-87.061l14.775,2.138
				l20.73,55.273l18.276-1.532c7.24-0.607,19.008,0.008,26.16,1.289c10.72,1.919,19.102,1.411,17.644,1.038
				c7.288-0.426,19.388-2.509,26.251,0.128C227.62,242.366,242.229,271.372,216.457,280.524z"/>
			<path style="fill:#B55B52;" d="M318.797,268.129c-4.799,55.09-23.087,86.132-20.63,130.177c0,0-100.259-1.699-103.658-1.699
				c-1.447-81.154-14.394-71.09-10.858-122.437c-0.609-16.927,11.852-28.634,21.545-30.313l41.771-7.601l54.515,9.369
				C312.228,247.481,319.756,257.266,318.797,268.129z"/>
			<g>
				<path style="fill:#B55B52;" d="M237.694,209.801c2.388,11.321,6.223,27.212-10.081,29.853c-4.777,5.948-6.752,17.59,8.588,25.26
					c19.611-4.661,43.513-13.225,45.81-22.686c-16.366-2.813-10.331-37.019-9.297-51.211L237.694,209.801z"/>
				<path style="opacity:0.2;enable-background:new    ;" d="M265.686,206.977c-1.577,3.885-3.849,7.449-6.705,10.518
					c-4.041,4.639-11.688,6.682-19.06,6.682c-0.253-4.89-0.983-9.743-2.182-14.49l1.539-0.804L265.686,206.977z"/>
				<path style="fill:#B55B52;" d="M220.78,195.661c2.733,19.978,25.972,31.506,42.276,18.026
					c9.415-7.762,11.298-17.452,13.641-32.585c0.368-2.296,0.735-4.707,1.148-7.279c0.666-3.996,0.436-8.084-0.666-11.964
					c-0.46-1.653-1.079-3.215-1.837-4.685c-5.695-11.436-18.876-17.544-31.598-13.893C223.812,148.999,218.3,177.681,220.78,195.661
					z"/>
				<path style="fill:#263238;" d="M236.091,200.273c6.31,0,9.836-3.933,9.995-4.116c0.171-0.195,0.152-0.492-0.043-0.663
					c-0.195-0.173-0.492-0.152-0.663,0.043c-0.04,0.044-4.051,4.528-11.042,3.69c-0.26-0.033-0.492,0.153-0.522,0.412
					c-0.031,0.258,0.153,0.492,0.412,0.522C234.873,200.238,235.495,200.273,236.091,200.273z"/>
				<path style="fill:#263238;" d="M265.117,172.674c2.111,0.069,4.469,0.597,5.428,2.158c0.685,1.102,2.001,9.53,1.014,12.033
					c1.233,0.206,0,0,1.206,0.206c1.809-2.411,5.109-4.753,8.179-5.971c0.439-2.296,2.72-22.676,1.816-24.145
					c-3.325-2.858-13.805-3.855-20.136-2.238C262.625,154.719,263.034,172.628,265.117,172.674z"/>
				<path style="fill:#B55B52;" d="M280.498,180.637c-6.246-1.447-12.033,5.419-14.054,10.609
					c-2.296,5.764,0.459,11.688,6.889,10.517c4.848-0.91,9.127-3.732,11.872-7.831C288.535,188.881,286.744,182.084,280.498,180.637
					z"/>
				<path style="fill:#263238;" d="M241.232,175.283c-1.033-0.115-1.998,1.102-2.159,2.687c-0.161,1.584,0.413,2.962,1.585,3.077
					c1.171,0.115,2.136-1.079,2.297-2.687C243.092,176.684,242.265,175.398,241.232,175.283z"/>
				<path style="fill:#263238;" d="M223.305,174.016c-1.033-0.115-1.998,1.079-2.158,2.664c-0.161,1.584,0.528,2.962,1.584,3.077
					c1.056,0.115,2.021-1.079,2.181-2.664C225.05,175.508,224.338,174.13,223.305,174.016z"/>
				<path style="fill:#A02724;" d="M230.672,193.48c-2.703,0.4-5.444-0.424-7.478-2.249c3.534-3.841,6.514-8.158,8.852-12.824
					L230.672,193.48z"/>
				<path style="fill:#263238;" d="M250.762,170.748c-1.191-2.09-3.305-3.489-5.695-3.766l0,0c-0.097,0.016-0.196,0.016-0.293,0
					c-0.514-0.081-0.864-0.563-0.783-1.076c0.081-0.514,0.563-0.864,1.077-0.783c3.004,0.277,5.689,1.988,7.21,4.593
					c0.268,0.438,0.135,1.011-0.298,1.286c-0.136,0.09-0.296,0.138-0.46,0.138C251.22,171.133,250.94,170.989,250.762,170.748z"/>
				<path style="fill:#263238;" d="M222.096,167.915c-0.004-0.003-0.007-0.006-0.011-0.009c-0.407-0.324-0.474-0.916-0.15-1.323
					c1.806-2.413,4.681-3.786,7.693-3.674c0.01,0.001,0.02,0.002,0.03,0.003c0.505,0.052,0.872,0.503,0.82,1.008
					c-0.001,0.026-0.003,0.052-0.007,0.077c-0.064,0.49-0.513,0.836-1.004,0.773c-2.383-0.037-4.639,1.074-6.062,2.985
					c-0.188,0.252-0.491,0.391-0.804,0.368C222.418,168.097,222.244,168.026,222.096,167.915z"/>
				<path style="fill:#263238;" d="M282.721,156.989c2.09-6.622-1.39-15.952-5.673-21.472c-0.502,3.759-1.74,9.405-1.74,9.405
					c-4.906-7.126-6.871-13.522-4.741-17.013c-4.929,2.499-7.843,8.645-6.413,13.894c-3.767-1.038-6.87-4.124-7.871-7.826
					c-1.001-3.702,0.684-9.975,3.434-12.7c-6.99,2.19-11.9,9.438-12.282,16.61c-2.704-1.221-4.653-3.913-4.932-6.814
					c-0.279-2.901,0.843-6.734,3.266-8.428c-7.975,2.524-12.704,11.418-10.693,19.38c-3.838-0.413-6.987-3.38-7.792-7.075
					c-2.293,5.973-0.403,13.253,4.526,17.43c1.752,1.485,4.038,1.174,6.143,2.124C246.762,152.996,279.328,155.223,282.721,156.989z
					"/>
			</g>
		</g>
		<path style="fill:#407BFF;" d="M297.737,406.672c2.944-42.827,9.866-73.783,17.661-112.651c-1.57,1.049-1.303,20.895-12.809,37.16
			c-6.007,8.492-19.244,3.84-22.539-4.545c-11.074-28.182-4.489-47.716,16.126-82.458c-4.518-0.849,0,0.056-3.824-1.849
			c-0.727-0.362-1.605-0.043-1.96,0.687c-8.448,17.362-35.229,54.297-71.157,51.39c-13.992-1.132-7.155-25.963-4.793-31.59
			c3.796-9.045,9.084-15.752,14.558-23.891c-3.134,1.198-2.704-0.768-5.187,1.489c-21.433,19.484-35.855,45.025-40.096,73.678
			c0,0,2.66,67.264,6.209,93.085L297.737,406.672z"/>
		<path style="opacity:0.2;enable-background:new    ;" d="M315.399,294.021c-3.856,18.492-5.684,28.918-8.991,43.799
			c-7.274-9.97-11.408-21.883-11.872-34.216c-0.666-12.056,6.361-23.377,10.495-25.145L315.399,294.021z"/>
		<g>
			<g>
				<path style="fill:#FFFFFF;" d="M291.639,401.372l-1.998-0.078c1.598-40.611,7.207-66.965,7.263-67.227l1.955,0.422
					C298.802,334.749,293.229,360.949,291.639,401.372z"/>
			</g>
			<g>
				<path style="fill:#FFFFFF;" d="M281.349,401.372l-1.998-0.078c1.597-40.596,5.963-64.708,6.007-64.946l1.967,0.361
					C287.281,336.946,282.94,360.935,281.349,401.372z"/>
			</g>
		</g>
		<path style="fill:#B55B52;" d="M326.189,264.75c3.276,9.89,1.482,20.759-4.06,29.582c-12.202,19.429-40.126,61.224-49.937,64.329
			c-12.585,3.983-63.472-49.208-63.472-49.208l7.517-13.195l47.522,23.898c0,0,17.303-70.422,33.987-73.071
			C309.663,245.193,321.597,250.887,326.189,264.75z"/>
		<g>
			<g>
				<g>
					<path style="fill:#263238;" d="M166.315,268.761c-0.117,4.114-3.546,7.355-7.661,7.238c-4.114-0.117-7.355-3.546-7.238-7.661
						c0.117-4.114,3.546-7.355,7.661-7.238C163.191,261.217,166.432,264.647,166.315,268.761z"/>
				</g>
				<g>
					<path style="fill:#263238;" d="M168.564,273.506l-4.762-0.135l0,0c-1.035-2.974-0.969-6.221,0.185-9.151l0.08-0.203
						l4.762,0.135L168.564,273.506z"/>
					<path style="opacity:0.1;fill:#FFFFFF;" d="M168.564,273.506l-4.762-0.135l0,0c-1.035-2.974-0.969-6.221,0.185-9.151
						l0.08-0.203l4.762,0.135L168.564,273.506z"/>
				</g>
			</g>
			<g>
				<g>
					<path style="fill:#263238;" d="M212.859,276.936l-44.451-1.26l0,0c-0.427-4.249-0.314-8.535,0.336-12.755l0.031-0.203
						l44.451,1.26L212.859,276.936z"/>
					<path style="opacity:0.2;fill:#FFFFFF;" d="M212.859,276.936l-44.451-1.26l0,0c-0.427-4.249-0.314-8.535,0.336-12.755
						l0.031-0.203l44.451,1.26L212.859,276.936z"/>
					<path style="fill:#263238;" d="M211.669,285.621l-16.982-0.481l0.013-0.349c0.127-3.518-2.621-6.473-6.139-6.601l0,0
						l6.936-21.623l16.982,0.481L211.669,285.621z"/>
					<path style="opacity:0.3;fill:#FFFFFF;" d="M211.669,285.621l-16.982-0.481l0.013-0.349c0.127-3.518-2.621-6.473-6.139-6.601
						l0,0l6.936-21.623l16.982,0.481L211.669,285.621z"/>
					<path style="fill:#263238;" d="M205.612,318.982l-7.245-0.205c-1.727-0.049-3.088-1.489-3.039-3.216l0.861-30.378l13.5,0.383
						l-0.861,30.378C208.779,317.671,207.339,319.031,205.612,318.982z"/>
					<path style="opacity:0.1;fill:#FFFFFF;" d="M205.612,318.982l-7.245-0.205c-1.727-0.049-3.088-1.489-3.039-3.216l0.861-30.378
						l13.5,0.383l-0.861,30.378C208.779,317.671,207.339,319.031,205.612,318.982z"/>
				</g>
			</g>
			<g>
				
					<rect x="172.633" y="261.518" transform="matrix(0.9996 0.0283 -0.0283 0.9996 7.725 -5.4118)" style="fill:#263238;" width="44.469" height="16.847"/>
				
					<rect x="172.633" y="261.518" transform="matrix(0.9996 0.0283 -0.0283 0.9996 7.725 -5.4118)" style="opacity:0.3;fill:#FFFFFF;" width="44.469" height="16.847"/>
			</g>
			<g>
				<g>
					<path style="fill:#263238;" d="M176.817,270.441c-0.005,0-0.01,0-0.015,0c-0.276-0.008-0.494-0.238-0.486-0.515l0.182-6.429
						c0.008-0.275,0.244-0.473,0.514-0.485c0.276,0.008,0.494,0.238,0.486,0.514l-0.182,6.429
						C177.308,270.227,177.086,270.441,176.817,270.441z"/>
				</g>
				<g>
					<path style="fill:#263238;" d="M179.734,270.441c-0.005,0-0.01,0-0.015,0c-0.276-0.008-0.494-0.238-0.486-0.515l0.182-6.429
						c0.008-0.275,0.235-0.473,0.514-0.485c0.276,0.008,0.494,0.238,0.486,0.514l-0.182,6.429
						C180.226,270.227,180.004,270.441,179.734,270.441z"/>
				</g>
				<g>
					<path style="fill:#263238;" d="M182.651,270.441c-0.005,0-0.01,0-0.015,0c-0.276-0.008-0.494-0.238-0.486-0.515l0.182-6.429
						c0.008-0.275,0.254-0.473,0.514-0.485c0.276,0.008,0.494,0.238,0.486,0.514l-0.182,6.429
						C183.143,270.227,182.921,270.441,182.651,270.441z"/>
				</g>
				<g>
					<path style="fill:#263238;" d="M185.569,270.441c-0.005,0-0.01,0-0.015,0c-0.276-0.008-0.494-0.238-0.486-0.515l0.182-6.429
						c0.008-0.275,0.246-0.473,0.514-0.485c0.276,0.008,0.494,0.238,0.486,0.514l-0.182,6.429
						C186.06,270.227,185.838,270.441,185.569,270.441z"/>
				</g>
			</g>
			<path style="opacity:0.2;fill:#FFFFFF;" d="M207.468,273.183l-9.369-0.266c-1.357-0.038-2.427-1.17-2.388-2.527l0,0
				c0.038-1.357,1.17-2.427,2.527-2.388l9.369,0.266c1.357,0.039,2.427,1.17,2.388,2.527l0,0
				C209.957,272.152,208.825,273.222,207.468,273.183z"/>
		</g>
		<path style="fill:#B55B52;" d="M217.808,309.49c-5.98,6.64-19.929-2.37-19.929-2.37l-8.399-3.687
			c-2.855-1.206-4.396-4.322-3.621-7.323l1.795-7.495c0.019-0.077,0.038-0.154,0.06-0.23c0.929-3.326,4.378-5.269,7.704-4.34
			l6.857,1.864c2.784,0.757,5.369,2.114,7.573,3.975l10.624,8.848L217.808,309.49z"/>
	</g>
	<g>
		<g>
			<path style="fill:#263238;" d="M239.048,272.087c-0.153,0-0.303-0.069-0.401-0.201c-5.867-7.88-7.341-32.436-7.401-33.478
				c-0.016-0.275,0.195-0.512,0.47-0.527c0.272-0.032,0.512,0.194,0.528,0.471c0.015,0.252,1.517,25.297,7.205,32.936
				c0.165,0.222,0.119,0.535-0.102,0.7C239.256,272.055,239.151,272.087,239.048,272.087z"/>
		</g>
		<g>
			<path style="fill:#FFFFFF;" d="M240.947,283.255h-3.8c-1.608,0-2.911-1.303-2.911-2.911v-8.683c0-1.608,1.303-2.911,2.911-2.911
				h3.8c1.608,0,2.911,1.303,2.911,2.911v8.683C243.858,281.952,242.555,283.255,240.947,283.255z"/>
		</g>
		<g>
			<path style="fill:#263238;" d="M240.474,272.235c-0.535,0-1.048-0.052-1.536-0.16c-0.27-0.061-0.439-0.327-0.379-0.597
				c0.06-0.269,0.329-0.434,0.597-0.38c11.491,2.551,39.533-29.932,39.815-30.26c0.18-0.21,0.497-0.231,0.705-0.055
				c0.209,0.181,0.233,0.496,0.054,0.705C278.61,242.795,253.189,272.235,240.474,272.235z"/>
		</g>
	</g>
	<circle style="fill:#263238;" cx="239.113" cy="271.622" r="0.995"/>
</g>
<g id="Vibration">
	<g>
		<g>
			<path style="fill:#407BFF;" d="M151.558,295.772c-2.608,0-5.422-1.931-7.445-4.35l-0.397-0.477
				c-2.175-2.616-4.646-5.573-7.847-5.409c-1.647,0.091-3.073,0.999-4.584,1.96c-1.139,0.726-2.316,1.475-3.632,1.88
				c-2.583,0.795-5.527,0.11-7.496-1.745c-1.968-1.856-2.824-4.754-2.182-7.382c0.066-0.268,0.338-0.432,0.604-0.366
				c0.269,0.065,0.433,0.336,0.367,0.605c-0.55,2.249,0.211,4.827,1.896,6.416c1.685,1.587,4.301,2.198,6.516,1.518
				c1.187-0.366,2.307-1.079,3.389-1.769c1.552-0.988,3.157-2.01,5.066-2.114c3.712-0.226,6.345,2.97,8.671,5.768l0.395,0.475
				c1.823,2.18,5.717,5.349,8.743,3.387c0.669-0.434,1.189-1.072,1.738-1.749c0.607-0.746,1.233-1.518,2.103-2.038
				c1.706-1.02,4.103-0.861,6.576,0.433c0.685,0.358,1.348,0.77,1.989,1.17c1.176,0.731,2.288,1.422,3.537,1.819
				c1.779,0.566,4.166,0.283,5.084-1.36c0.135-0.242,0.438-0.327,0.681-0.192c0.241,0.135,0.327,0.439,0.192,0.681
				c-1.189,2.128-4.048,2.528-6.26,1.825c-1.368-0.435-2.585-1.191-3.762-1.924c-0.626-0.389-1.272-0.791-1.924-1.132
				c-1.021-0.534-3.61-1.649-5.599-0.46c-0.717,0.429-1.262,1.1-1.839,1.81c-0.574,0.707-1.169,1.438-1.97,1.958
				C153.351,295.538,152.467,295.772,151.558,295.772z"/>
		</g>
		<g>
			<path style="fill:#407BFF;" d="M181.224,236.088c-0.694,0-1.386-0.101-2.067-0.341c-1.586-0.562-2.77-1.775-3.915-2.949
				c-1.196-1.227-2.326-2.385-3.833-2.775c-2.298-0.593-4.528,0.759-6.889,2.189c-2.563,1.553-5.212,3.159-7.98,2.018
				c-1.466-0.604-2.498-1.856-3.496-3.066c-1.123-1.362-2.184-2.65-3.731-2.853c-2.003-0.267-3.837,1.325-5.638,4.849
				c-0.126,0.246-0.427,0.344-0.673,0.218c-0.246-0.126-0.343-0.427-0.218-0.673c2.017-3.948,4.196-5.714,6.658-5.385
				c1.938,0.254,3.176,1.756,4.373,3.208c0.92,1.115,1.87,2.27,3.105,2.778c2.302,0.947,4.623-0.459,7.081-1.949
				c2.434-1.475,4.953-2.999,7.658-2.301c1.778,0.459,3.06,1.773,4.299,3.044c1.114,1.142,2.166,2.221,3.533,2.704
				c2.186,0.773,4.587-0.165,6.91-1.073l0.319-0.124c2.251-0.876,5.529-1.844,7.992-0.135c0.227,0.158,0.283,0.47,0.125,0.696
				c-0.157,0.227-0.469,0.282-0.696,0.126c-2.07-1.438-5.02-0.549-7.06,0.244l-0.318,0.124
				C185.026,235.342,183.117,236.088,181.224,236.088z"/>
		</g>
		<g>
			<g>
				<path style="fill:#407BFF;" d="M151.076,257.65c-0.064,0-0.129-0.013-0.192-0.038c-0.255-0.106-0.376-0.399-0.27-0.654
					c1.149-2.762,4.253-4.548,7.217-4.156c0.274,0.037,0.466,0.288,0.43,0.561c-0.036,0.274-0.289,0.47-0.561,0.431
					c-2.534-0.337-5.182,1.191-6.164,3.549C151.458,257.534,151.272,257.65,151.076,257.65z"/>
			</g>
			<g>
				<path style="fill:#407BFF;" d="M153.734,259.06c-0.026,0-0.054-0.002-0.081-0.007c-0.272-0.044-0.458-0.301-0.413-0.573
					c0.126-0.775,0.626-1.466,1.372-1.895c0.745-0.428,1.592-0.513,2.327-0.231c0.258,0.099,0.387,0.388,0.288,0.646
					c-0.099,0.259-0.386,0.387-0.646,0.288c-0.443-0.169-0.993-0.109-1.47,0.165c-0.477,0.273-0.807,0.718-0.883,1.188
					C154.187,258.887,153.975,259.06,153.734,259.06z"/>
			</g>
			<g>
				<path style="fill:#407BFF;" d="M154.857,281.619c-0.045,0-0.091-0.006-0.137-0.019c-3.524-0.997-6.502-3.75-7.771-7.185
					c-0.096-0.26,0.036-0.547,0.295-0.643c0.258-0.098,0.547,0.036,0.642,0.295c1.161,3.141,3.884,5.658,7.107,6.569
					c0.266,0.075,0.42,0.352,0.345,0.617C155.276,281.476,155.075,281.619,154.857,281.619z"/>
			</g>
			<g>
				<path style="fill:#407BFF;" d="M153.605,277.823c-0.032,0-0.065-0.003-0.099-0.01c-1.581-0.316-2.835-1.71-2.983-3.315
					c-0.025-0.275,0.177-0.518,0.452-0.544c0.277-0.017,0.518,0.177,0.544,0.452c0.107,1.155,1.045,2.198,2.183,2.426
					c0.27,0.054,0.446,0.317,0.392,0.588C154.047,277.659,153.838,277.823,153.605,277.823z"/>
			</g>
		</g>
	</g>
</g>
<g id="Desk">
	<g>
		<path style="fill:#407BFF;" d="M437.838,412.391H62.162c-3.019,0-5.466-2.447-5.466-5.466v0c0-3.019,2.447-5.466,5.466-5.466
			h375.675c3.019,0,5.466,2.447,5.466,5.466v0C443.304,409.944,440.857,412.391,437.838,412.391z"/>
		<path style="opacity:0.8;fill:#FFFFFF;" d="M437.838,412.391H62.162c-3.019,0-5.466-2.447-5.466-5.466v0
			c0-3.019,2.447-5.466,5.466-5.466h375.675c3.019,0,5.466,2.447,5.466,5.466v0C443.304,409.944,440.857,412.391,437.838,412.391z"
			/>
	</g>
</g>
<g id="Dumbell">
	<g>
		<g>
			<path style="fill:#407BFF;" d="M80.872,401.491c-0.625,0.061-1.255,0.094-1.891,0.094c-12.367,0-22.395-11.486-22.395-25.659
				c0-14.173,10.028-25.665,22.395-25.665c0.636,0,1.267,0.034,1.891,0.095c-11.483,1.101-20.498,12.127-20.498,25.571
				C60.374,389.371,69.389,400.39,80.872,401.491z"/>
			<path style="opacity:0.5;fill:#FFFFFF;" d="M80.872,401.491c-0.625,0.061-1.255,0.094-1.891,0.094
				c-12.367,0-22.395-11.486-22.395-25.659c0-14.173,10.028-25.665,22.395-25.665c0.636,0,1.267,0.034,1.891,0.095
				c-11.483,1.101-20.498,12.127-20.498,25.571C60.374,389.371,69.389,400.39,80.872,401.491z"/>
			<path style="fill:#407BFF;" d="M105.159,375.927c0,14.173-10.028,25.659-22.395,25.659c-0.636,0-1.267-0.034-1.891-0.094
				c-11.483-1.101-20.498-12.12-20.498-25.564c0-13.444,9.015-24.47,20.498-25.571c0.625-0.061,1.255-0.095,1.891-0.095
				C95.131,350.261,105.159,361.754,105.159,375.927z"/>
		</g>
		<g>
			<path style="fill:#407BFF;" d="M137.659,382.106H84.822c-2.858,0-5.175-2.317-5.175-5.175l0,0c0-2.858,2.317-5.175,5.175-5.175
				h52.837V382.106z"/>
			<path style="opacity:0.2;fill:#FFFFFF;" d="M137.659,382.106H84.822c-2.858,0-5.175-2.317-5.175-5.175l0,0
				c0-2.858,2.317-5.175,5.175-5.175h52.837V382.106z"/>
		</g>
		<g>
			<path style="fill:#407BFF;" d="M137.659,401.491c-0.625,0.061-1.255,0.094-1.891,0.094c-12.367,0-22.395-11.486-22.395-25.659
				c0-14.173,10.028-25.665,22.395-25.665c0.636,0,1.267,0.034,1.891,0.095c-11.483,1.101-20.498,12.127-20.498,25.571
				C117.161,389.371,126.176,400.39,137.659,401.491z"/>
			<path style="opacity:0.5;fill:#FFFFFF;" d="M137.659,401.491c-0.625,0.061-1.255,0.094-1.891,0.094
				c-12.367,0-22.395-11.486-22.395-25.659c0-14.173,10.028-25.665,22.395-25.665c0.636,0,1.267,0.034,1.891,0.095
				c-11.483,1.101-20.498,12.127-20.498,25.571C117.161,389.371,126.176,400.39,137.659,401.491z"/>
			<path style="fill:#407BFF;" d="M161.946,375.927c0,14.173-10.028,25.659-22.395,25.659c-0.636,0-1.267-0.034-1.891-0.094
				c-11.483-1.101-20.498-12.12-20.498-25.564c0-13.444,9.015-24.47,20.498-25.571c0.625-0.061,1.255-0.095,1.891-0.095
				C151.918,350.261,161.946,361.754,161.946,375.927z"/>
		</g>
		<g>
			<path style="fill:#407BFF;" d="M142.053,393.658c-0.424,0.041-0.852,0.064-1.284,0.064c-8.393,0-15.198-7.795-15.198-17.413
				c0-9.618,6.805-17.418,15.198-17.418c0.432,0,0.86,0.023,1.284,0.064c-7.793,0.747-13.911,8.23-13.911,17.353
				C128.142,385.432,134.26,392.911,142.053,393.658z"/>
			<path style="opacity:0.5;fill:#FFFFFF;" d="M142.053,393.658c-0.424,0.041-0.852,0.064-1.284,0.064
				c-8.393,0-15.198-7.795-15.198-17.413c0-9.618,6.805-17.418,15.198-17.418c0.432,0,0.86,0.023,1.284,0.064
				c-7.793,0.747-13.911,8.23-13.911,17.353C128.142,385.432,134.26,392.911,142.053,393.658z"/>
			<path style="fill:#407BFF;" d="M158.535,376.309c0,9.618-6.805,17.413-15.198,17.413c-0.432,0-0.86-0.023-1.283-0.064
				c-7.793-0.747-13.911-8.225-13.911-17.349c0-9.124,6.118-16.607,13.911-17.353c0.424-0.041,0.852-0.064,1.283-0.064
				C151.729,358.891,158.535,366.69,158.535,376.309z"/>
			<path style="opacity:0.1;fill:#FFFFFF;" d="M158.535,376.309c0,9.618-6.805,17.413-15.198,17.413
				c-0.432,0-0.86-0.023-1.283-0.064c-7.793-0.747-13.911-8.225-13.911-17.349c0-9.124,6.118-16.607,13.911-17.353
				c0.424-0.041,0.852-0.064,1.283-0.064C151.729,358.891,158.535,366.69,158.535,376.309z"/>
		</g>
	</g>
</g>
</svg>
